<svg width="498" height="94" viewBox="0 0 498 94" fill="none" xmlns="http://www.w3.org/2000/svg">
<path opacity="0.5" d="M12.8281 90.2422C11.3438 89.3047 10.0938 87.625 9.07812 85.2031C8.14062 82.7812 7.35938 79.8906 6.73438 76.5312C6.1875 73.1719 5.79688 69.4609 5.5625 65.3984C5.32812 61.3359 5.17188 57.2344 5.09375 53.0938C5.09375 48.9531 5.13281 44.8906 5.21094 40.9062C5.36719 36.8438 5.52344 33.2109 5.67969 30.0078C5.83594 26.7266 5.95312 23.9531 6.03125 21.6875C6.1875 19.4219 6.26562 17.9375 6.26562 17.2344C6.03125 17.9375 5.40625 18.1328 4.39062 17.8203C3.45312 17.4297 2.59375 16.8437 1.8125 16.0625C1.10938 15.2031 0.679688 14.2656 0.523438 13.25C0.445312 12.2344 1.14844 11.4141 2.63281 10.7891C4.50781 10.0078 6.46094 9.38281 8.49219 8.91406C10.6016 8.36719 12.75 7.89844 14.9375 7.50781C17.125 7.11719 19.2734 6.76562 21.3828 6.45312C23.4922 6.14063 25.5625 5.75 27.5938 5.28125L83.0234 3.28906C84.1953 2.66406 85.4062 2.42969 86.6562 2.58594C87.9844 2.74219 89.0781 3.13281 89.9375 3.75781C90.7969 4.38281 91.3438 5.24219 91.5781 6.33594C91.8125 7.35156 91.4219 8.48438 90.4062 9.73438C89.1562 9.65625 87.125 9.61719 84.3125 9.61719C81.5781 9.53906 78.375 9.53906 74.7031 9.61719C71.0312 9.61719 67.0078 9.65625 62.6328 9.73438C58.2578 9.8125 53.8438 9.96875 49.3906 10.2031C45.0156 10.3594 40.7188 10.6328 36.5 11.0234C32.3594 11.3359 28.6094 11.7266 25.25 12.1953C21.9688 12.6641 19.1953 13.25 16.9297 13.9531C14.7422 14.6562 13.375 15.4375 12.8281 16.2969C11.5 18.5625 10.6406 21.4531 10.25 24.9688C9.9375 28.4063 9.82031 32.0391 9.89844 35.8672C10.0547 39.6172 10.3281 43.2891 10.7188 46.8828C11.1875 50.4766 11.5781 53.5234 11.8906 56.0234C13.0625 56.1797 13.8828 56.2578 14.3516 56.2578C14.8203 56.2578 15.1719 56.2188 15.4062 56.1406C15.7188 55.9844 16.0312 55.8281 16.3438 55.6719C16.7344 55.5156 17.3984 55.3203 18.3359 55.0859C18.8047 55.0078 19.7422 54.8516 21.1484 54.6172C22.6328 54.3047 24.3516 53.9531 26.3047 53.5625C28.3359 53.1719 30.4453 52.7812 32.6328 52.3906C34.8203 51.9219 36.8906 51.5312 38.8438 51.2188C40.875 50.8281 42.6328 50.4766 44.1172 50.1641C45.6016 49.8516 46.5781 49.6562 47.0469 49.5781C49.8594 49.0312 51.7734 48.5234 52.7891 48.0547C53.8047 47.5078 54.4688 47.0391 54.7812 46.6484C55.1719 46.1797 55.4844 45.75 55.7188 45.3594C55.9531 44.8906 56.7344 44.4219 58.0625 43.9531C59.5469 43.4844 60.4844 43.7188 60.875 44.6562C61.2656 45.5156 61.1484 46.6484 60.5234 48.0547C59.9766 49.4609 58.9219 50.8672 57.3594 52.2734C55.875 53.6797 53.9609 54.6172 51.6172 55.0859C50.3672 55.3203 48.1016 55.75 44.8203 56.375C41.6172 57 38.1797 57.6641 34.5078 58.3672C30.9141 59.0703 27.4766 59.7344 24.1953 60.3594C20.9922 60.9062 18.7266 61.2969 17.3984 61.5312C17.2422 61.6094 16.8906 61.7656 16.3438 62C15.7969 62.2344 15.2109 62.5078 14.5859 62.8203C14.0391 63.1328 13.4922 63.4453 12.9453 63.7578C12.4766 63.9922 12.125 64.1484 11.8906 64.2266C11.8125 64.3047 11.6172 64.4609 11.3047 64.6953C11.0703 64.9297 10.9531 65.125 10.9531 65.2812C11.2656 72.3125 12.2422 77.4688 13.8828 80.75C15.5234 84.0312 17.8281 86.0625 20.7969 86.8438C23.7656 87.5469 27.4766 87.3516 31.9297 86.2578C36.4609 85.0859 41.7734 83.6016 47.8672 81.8047C49.4297 81.3359 51.2656 80.9062 53.375 80.5156C55.5625 80.0469 57.7109 79.4609 59.8203 78.7578C61.9297 78.0547 63.8828 77.2344 65.6797 76.2969C67.5547 75.2812 69 74.0312 70.0156 72.5469C70.3281 72.0781 70.4062 71.6875 70.25 71.375C70.0938 71.0625 69.8984 70.7109 69.6641 70.3203C69.4297 69.9297 69.2734 69.5 69.1953 69.0312C69.1953 68.4844 69.4688 67.8203 70.0156 67.0391C73.6094 67.9766 75.7578 69.1875 76.4609 70.6719C77.1641 72.0781 76.8516 73.6016 75.5234 75.2422C74.1953 76.8828 72.0078 78.6016 68.9609 80.3984C65.9141 82.1172 62.3984 83.7578 58.4141 85.3203C54.5078 86.8047 50.3281 88.1328 45.875 89.3047C41.4219 90.4766 37.0859 91.375 32.8672 92C28.7266 92.5469 24.8594 92.7031 21.2656 92.4688C17.75 92.2344 14.9375 91.4922 12.8281 90.2422ZM88.7656 91.0625C87.2812 90.5156 86.3438 89.8906 85.9531 89.1875C85.5625 88.4844 85.5625 87.2734 85.9531 85.5547C87.125 79.9297 88.375 74.4219 89.7031 69.0312C91.0312 63.5625 92.2031 58.1328 93.2188 52.7422C94.3125 47.3516 95.1328 41.8828 95.6797 36.3359C96.3047 30.7891 96.4609 25.0078 96.1484 18.9922C96.8516 17.6641 97.5547 17.1953 98.2578 17.5859C98.9609 17.9766 99.5469 18.7578 100.016 19.9297C100.562 21.0234 100.992 22.2734 101.305 23.6797C101.617 25.0078 101.773 25.9453 101.773 26.4922C101.305 31.1016 100.836 35.6328 100.367 40.0859C99.8984 44.4609 99.3516 48.8359 98.7266 53.2109C98.1797 57.5859 97.5547 62 96.8516 66.4531C96.1484 70.8281 95.2891 75.3594 94.2734 80.0469C93.8047 82.3906 94.5078 84.0703 96.3828 85.0859C98.2578 86.0234 100.523 86.6094 103.18 86.8438C105.914 87.0781 108.648 87.1172 111.383 86.9609C114.117 86.7266 116.148 86.5703 117.477 86.4922C118.18 86.4141 119.469 86.2969 121.344 86.1406C123.297 85.9844 125.328 85.8281 127.438 85.6719C129.625 85.4375 131.695 85.2422 133.648 85.0859C135.602 84.9297 136.969 84.7734 137.75 84.6172C138.453 83.8359 139.625 83.25 141.266 82.8594C142.984 82.4688 144.781 82.1172 146.656 81.8047C148.609 81.4922 150.523 81.1406 152.398 80.75C154.352 80.3594 155.914 79.7734 157.086 78.9922C157.711 78.6016 158.531 78.1328 159.547 77.5859C160.641 77.0391 161.656 76.9219 162.594 77.2344V80.0469C162.281 80.3594 161.578 80.9844 160.484 81.9219C159.391 82.8594 158.18 83.9531 156.852 85.2031C155.523 86.375 154.195 87.5859 152.867 88.8359C151.539 90.0859 150.484 91.1406 149.703 92C149.703 91.8438 149.586 91.6484 149.352 91.4141C149.117 91.1797 148.922 91.0625 148.766 91.0625C144.703 90.5156 140.094 90.2812 134.938 90.3594C129.781 90.3594 124.586 90.5156 119.352 90.8281C114.117 91.0625 109.039 91.3359 104.117 91.6484C99.2734 91.9609 95.0547 92.0781 91.4609 92C91.2266 91.9219 90.7578 91.8047 90.0547 91.6484C89.3516 91.4141 88.9219 91.2188 88.7656 91.0625ZM181.93 91.0625C181.773 90.9844 181.461 90.7109 180.992 90.2422C180.523 89.7734 180.25 89.4219 180.172 89.1875C179.781 83.9531 179.898 78.6406 180.523 73.25C181.148 67.7812 181.773 62.3125 182.398 56.8438C183.102 51.375 183.531 45.9453 183.688 40.5547C183.844 35.1641 183.258 29.8516 181.93 24.6172L180.992 20.9844H169.977C169.273 20.9844 168.805 20.7109 168.57 20.1641C168.336 19.5391 168.219 18.875 168.219 18.1719C168.219 17.3906 168.297 16.6484 168.453 15.9453C168.688 15.2422 168.883 14.7344 169.039 14.4219C169.195 14.2656 169.352 14.0703 169.508 13.8359C169.742 13.6016 169.898 13.4844 169.977 13.4844H180.992V7.03906C180.992 5.63281 181.305 5.125 181.93 5.51562C182.633 5.82812 183.375 6.49219 184.156 7.50781C184.938 8.44531 185.68 9.5 186.383 10.6719C187.086 11.7656 187.438 12.3906 187.438 12.5469C191.656 13.1719 195.836 13.5234 199.977 13.6016C204.195 13.6016 208.375 13.4453 212.516 13.1328C216.656 12.7422 220.797 12.2734 224.938 11.7266C229.078 11.1016 233.219 10.4766 237.359 9.85156C237.828 9.77344 238.414 9.92969 239.117 10.3203C239.898 10.7109 240.562 11.2187 241.109 11.8438C241.734 12.3906 242.164 13.0156 242.398 13.7188C242.633 14.3438 242.477 14.9297 241.93 15.4766C240.523 16.8828 238.492 17.8984 235.836 18.5234C233.18 19.1484 230.172 19.5391 226.812 19.6953C223.453 19.8516 219.859 19.8906 216.031 19.8125C212.281 19.7344 208.609 19.6562 205.016 19.5781C201.5 19.5 198.18 19.5391 195.055 19.6953C192.008 19.8516 189.469 20.2812 187.438 20.9844C187.594 26.6094 187.594 32.2344 187.438 37.8594C187.359 43.4062 187.203 48.9922 186.969 54.6172C186.812 60.2422 186.656 65.8672 186.5 71.4922C186.422 77.0391 186.461 82.625 186.617 88.25L184.742 92C184.664 92.1562 184.273 92.1172 183.57 91.8828C182.867 91.5703 182.32 91.2969 181.93 91.0625ZM191.188 48.5234C191.031 48.5234 190.836 48.4062 190.602 48.1719C190.445 47.9375 190.328 47.7812 190.25 47.7031C190.562 46.8438 190.953 45.9062 191.422 44.8906C191.891 43.875 192.477 43.0547 193.18 42.4297C193.883 41.8047 194.664 41.4922 195.523 41.4922C196.461 41.4141 197.516 41.9219 198.688 43.0156C199.703 43.0938 201.5 42.9766 204.078 42.6641C206.734 42.3516 209.742 42 213.102 41.6094C216.461 41.1406 219.977 40.6719 223.648 40.2031C227.32 39.7344 230.719 39.3438 233.844 39.0312C236.969 38.7188 239.625 38.6016 241.812 38.6797C244 38.6797 245.289 38.9141 245.68 39.3828C246.305 40.2422 246.109 41.1016 245.094 41.9609C244.078 42.8203 242.516 43.6406 240.406 44.4219C238.297 45.2031 235.758 45.9453 232.789 46.6484C229.82 47.2734 226.695 47.8594 223.414 48.4062C220.133 48.875 216.773 49.2656 213.336 49.5781C209.977 49.8906 206.812 50.0859 203.844 50.1641C200.953 50.1641 198.375 50.0469 196.109 49.8125C193.844 49.5781 192.203 49.1484 191.188 48.5234ZM282.594 91.0625C281.031 90.6719 279.195 89.8125 277.086 88.4844C274.977 87.1562 272.867 85.5547 270.758 83.6797C268.727 81.8047 266.812 79.7734 265.016 77.5859C263.297 75.3203 262.008 73.0938 261.148 70.9062C260.289 68.6406 260.016 66.4531 260.328 64.3438C260.719 62.2344 261.969 60.3594 264.078 58.7188C264.391 58.4844 265.016 58.1719 265.953 57.7812C266.969 57.3906 267.945 57.1172 268.883 56.9609C269.898 56.8047 270.68 56.9219 271.227 57.3125C271.852 57.7031 271.969 58.5234 271.578 59.7734C268.844 60.9453 267.125 62.4688 266.422 64.3438C265.719 66.2188 265.719 68.2109 266.422 70.3203C267.203 72.4297 268.492 74.5391 270.289 76.6484C272.164 78.7578 274.273 80.6719 276.617 82.3906C278.961 84.0312 281.383 85.3984 283.883 86.4922C286.461 87.5859 288.844 88.1328 291.031 88.1328C293.219 88.1328 295.055 87.5469 296.539 86.375C298.102 85.125 299 83.0156 299.234 80.0469C299.469 76.2188 299.195 72.5078 298.414 68.9141C297.711 65.3203 296.148 61.9219 293.727 58.7188C291.695 56.1406 289.586 54.0312 287.398 52.3906C285.289 50.75 283.141 49.3047 280.953 48.0547C278.844 46.8047 276.695 45.6328 274.508 44.5391C272.398 43.4453 270.328 42.1953 268.297 40.7891C266.344 39.3047 264.508 37.5859 262.789 35.6328C261.07 33.6016 259.508 31.0625 258.102 28.0156C256.305 24.0312 255.758 20.3203 256.461 16.8828C257.242 13.3672 258.805 10.3984 261.148 7.97656C263.57 5.47656 266.539 3.64062 270.055 2.46875C273.648 1.21875 277.359 0.828125 281.188 1.29688C283.531 1.60937 285.68 2.50781 287.633 3.99219C289.586 5.47656 291.188 7.23437 292.438 9.26562C293.766 11.2187 294.664 13.2891 295.133 15.4766C295.602 17.6641 295.523 19.6172 294.898 21.3359C294.273 22.9766 292.984 24.2266 291.031 25.0859C289.156 25.8672 286.5 25.9453 283.062 25.3203C282.672 23.9922 282.828 22.9766 283.531 22.2734C284.234 21.5703 285.055 20.9453 285.992 20.3984C286.93 19.7734 287.789 19.1875 288.57 18.6406C289.352 18.0156 289.664 17.1563 289.508 16.0625C288.883 12.2344 287.438 9.5 285.172 7.85938C282.906 6.14063 280.367 5.32031 277.555 5.39844C274.82 5.39844 272.125 6.17969 269.469 7.74219C266.812 9.22656 264.742 11.2578 263.258 13.8359C261.852 16.4141 261.344 19.4219 261.734 22.8594C262.125 26.2187 264 29.8125 267.359 33.6406C269.859 36.5312 272.242 38.7188 274.508 40.2031C276.773 41.6094 279 42.8984 281.188 44.0703C283.453 45.1641 285.758 46.4141 288.102 47.8203C290.445 49.2266 292.906 51.3359 295.484 54.1484C297.672 56.5703 299.508 59.3438 300.992 62.4688C302.477 65.5156 303.453 68.6406 303.922 71.8438C304.469 74.9688 304.469 77.9766 303.922 80.8672C303.453 83.6797 302.359 86.0625 300.641 88.0156C299 89.9688 296.695 91.2969 293.727 92C290.758 92.625 287.047 92.3125 282.594 91.0625ZM358.297 87.4297C358.766 72.8984 358.141 61.2188 356.422 52.3906C354.781 43.4844 352.516 37.1172 349.625 33.2891C346.812 29.4609 343.688 27.9766 340.25 28.8359C336.812 29.6953 333.531 32.5469 330.406 37.3906C327.359 42.1562 324.703 48.7188 322.438 57.0781C320.25 65.4375 319 75.2422 318.688 86.4922C318.375 87.4297 317.906 87.8984 317.281 87.8984C316.656 87.8203 316.031 87.5078 315.406 86.9609C314.781 86.4141 314.234 85.75 313.766 84.9688C313.297 84.1094 313.062 83.3672 313.062 82.7422C313.062 82.4297 313.102 81.6875 313.18 80.5156C313.336 79.3438 313.453 78.0938 313.531 76.7656C313.688 75.4375 313.805 74.1875 313.883 73.0156C313.961 71.8438 314 71.1016 314 70.7891C314 70.0859 314 68.9922 314 67.5078C314.078 65.9453 314.117 64.1875 314.117 62.2344C314.117 60.2812 314.117 58.25 314.117 56.1406C314.117 53.9531 314.117 51.9219 314.117 50.0469C314.117 48.0938 314.078 46.3359 314 44.7734C314 43.2109 314 42.0391 314 41.2578C314 40.8672 313.961 40.0469 313.883 38.7969C313.805 37.4688 313.727 36.1016 313.648 34.6953C313.57 33.2109 313.453 31.8047 313.297 30.4766C313.219 29.0703 313.141 28.0547 313.062 27.4297C313.062 27.0391 312.945 26.1406 312.711 24.7344C312.555 23.25 312.359 21.6875 312.125 20.0469C311.969 18.3281 311.812 16.7656 311.656 15.3594C311.5 13.875 311.383 12.9375 311.305 12.5469C311.07 10.0469 311.383 8.60156 312.242 8.21094C313.102 7.74219 314.312 8.60156 315.875 10.7891C316.5 17.1953 316.93 23.5234 317.164 29.7734C317.398 35.9453 317.906 42.1953 318.688 48.5234C319.391 46.1797 320.25 43.7188 321.266 41.1406C322.359 38.4844 323.609 35.9844 325.016 33.6406C326.5 31.2969 328.219 29.2266 330.172 27.4297C332.203 25.6328 334.508 24.3828 337.086 23.6797C340.523 22.6641 343.492 22.5469 345.992 23.3281C348.492 24.1094 350.602 25.5156 352.32 27.5469C354.117 29.5 355.562 31.9609 356.656 34.9297C357.75 37.8984 358.648 41.1016 359.352 44.5391C360.055 47.9766 360.562 51.5312 360.875 55.2031C361.188 58.7969 361.461 62.2344 361.695 65.5156C361.93 68.7969 362.125 71.8047 362.281 74.5391C362.438 77.1953 362.672 79.3438 362.984 80.9844C363.219 82.2344 363.805 82.9766 364.742 83.2109C365.68 83.3672 366.539 83.5625 367.32 83.7969C368.102 83.9531 368.531 84.3828 368.609 85.0859C368.766 85.7109 368.141 87.0781 366.734 89.1875C366.188 89.9688 365.406 90.5547 364.391 90.9453C363.453 91.3359 362.477 91.5312 361.461 91.5312C360.523 91.4531 359.703 91.1016 359 90.4766C358.375 89.7734 358.141 88.7578 358.297 87.4297ZM378.57 91.0625C376.305 89.3438 374.625 87.4688 373.531 85.4375C372.438 83.3281 371.695 81.1406 371.305 78.875C370.992 76.5312 370.992 74.1484 371.305 71.7266C371.695 69.2266 372.242 66.7266 372.945 64.2266C373.414 62.6641 373.844 60.7891 374.234 58.6016C374.703 56.4141 375.25 54.2266 375.875 52.0391C376.5 49.7734 377.242 47.7031 378.102 45.8281C378.961 43.875 380.016 42.3516 381.266 41.2578C382.047 40.5547 383.062 40.0469 384.312 39.7344C385.562 39.3438 386.852 39.1484 388.18 39.1484C389.508 39.0703 390.797 39.0703 392.047 39.1484C393.297 39.2266 394.312 39.3047 395.094 39.3828C398.531 39.6172 401.188 40.7891 403.062 42.8984C404.938 44.9297 406.188 47.4688 406.812 50.5156C407.438 53.5625 407.516 56.9609 407.047 60.7109C406.656 64.4609 405.797 68.1719 404.469 71.8438C403.219 75.4375 401.617 78.8359 399.664 82.0391C397.711 85.2422 395.562 87.8594 393.219 89.8906C390.953 91.8438 388.531 93.0156 385.953 93.4062C383.453 93.7969 380.992 93.0156 378.57 91.0625ZM380.328 84.6172C382.281 86.1797 384.391 86.5312 386.656 85.6719C388.922 84.8125 391.07 83.2109 393.102 80.8672C395.211 78.5234 397.086 75.7109 398.727 72.4297C400.367 69.0703 401.539 65.75 402.242 62.4688C402.945 59.1094 403.062 56.0234 402.594 53.2109C402.125 50.3203 400.875 48.1719 398.844 46.7656C395.953 44.8125 393.219 44.2266 390.641 45.0078C388.062 45.7109 385.797 47.2344 383.844 49.5781C381.891 51.8438 380.25 54.6953 378.922 58.1328C377.672 61.5703 376.852 65.0078 376.461 68.4453C376.07 71.8828 376.148 75.0859 376.695 78.0547C377.32 81.0234 378.531 83.2109 380.328 84.6172ZM483.688 91.0625C479.469 88.5625 476.07 85.5938 473.492 82.1562C470.914 78.7188 468.688 75.0859 466.812 71.2578C464.938 67.4297 463.141 63.4844 461.422 59.4219C459.703 55.3594 457.594 51.4531 455.094 47.7031C454.859 47.3125 454.547 47.3125 454.156 47.7031C452.594 50.5156 451.266 53.4844 450.172 56.6094C449.156 59.6562 448.141 62.7422 447.125 65.8672C446.109 68.9922 444.977 72.0781 443.727 75.125C442.555 78.1719 441.109 81.0234 439.391 83.6797C438.609 84.7734 437.438 85.75 435.875 86.6094C434.391 87.4688 432.945 87.9375 431.539 88.0156C430.211 88.0156 429.156 87.5078 428.375 86.4922C427.594 85.3984 427.594 83.5625 428.375 80.9844C426.266 75.125 424.469 69.5391 422.984 64.2266C421.5 58.8359 419.898 53.3281 418.18 47.7031C417.711 46.2969 417.008 44.6953 416.07 42.8984C415.133 41.0234 414.352 39.1484 413.727 37.2734C413.102 35.3984 412.828 33.6016 412.906 31.8828C412.984 30.0859 413.805 28.6016 415.367 27.4297C415.992 26.9609 416.852 27.8594 417.945 30.125C419.039 32.3906 420.25 35.3594 421.578 39.0312C422.906 42.7031 424.234 46.8047 425.562 51.3359C426.891 55.7891 428.141 60.0078 429.312 63.9922C430.484 67.9766 431.461 71.375 432.242 74.1875C433.102 77 433.648 78.6016 433.883 78.9922C435.523 77.8984 437.008 76.1016 438.336 73.6016C439.664 71.1016 440.875 68.2891 441.969 65.1641C443.141 61.9609 444.195 58.6797 445.133 55.3203C446.148 51.8828 447.125 48.7578 448.062 45.9453C449 43.0547 449.938 40.6719 450.875 38.7969C451.812 36.8438 452.789 35.7891 453.805 35.6328C454.898 35.4766 456.07 36.375 457.32 38.3281C458.57 40.2812 459.977 43.6797 461.539 48.5234C463.727 55.4766 466.539 62.0781 469.977 68.3281C473.492 74.5 478.062 79.9297 483.688 84.6172C485.562 85.7109 487.047 85.5156 488.141 84.0312C489.234 82.5469 490.016 80.3203 490.484 77.3516C490.953 74.3047 491.109 70.7891 490.953 66.8047C490.875 62.7422 490.602 58.7969 490.133 54.9688C489.742 51.0625 489.195 47.5469 488.492 44.4219C487.867 41.2188 487.164 38.9141 486.383 37.5078C485.602 36.3359 484.898 35.5547 484.273 35.1641C483.648 34.6953 483.219 34.2656 482.984 33.875C482.75 33.4062 482.789 32.8203 483.102 32.1172C483.492 31.3359 484.312 30.0469 485.562 28.25C486.969 27.2344 488.297 27.5469 489.547 29.1875C490.875 30.8281 492.047 33.2891 493.062 36.5703C494.156 39.8516 495.055 43.7188 495.758 48.1719C496.539 52.625 497.047 57.1562 497.281 61.7656C497.516 66.375 497.477 70.8281 497.164 75.125C496.852 79.3438 496.148 82.9375 495.055 85.9062C494.039 88.7969 492.594 90.8281 490.719 92C488.844 93.0938 486.5 92.7812 483.688 91.0625Z" fill="#10ACD5"/>
</svg>
