<svg width="40" height="40" viewBox="0 0 40 40" fill="none" xmlns="http://www.w3.org/2000/svg">
<path d="M20.044 40H19.956C8.95238 40 0 31.0476 0 20.044V19.956C0 8.95236 8.95238 0 19.956 0H20.044C31.0476 0 40 8.95236 40 19.956V20.044C40 31.0476 31.0476 40 20.044 40ZM19.956 1.35396C9.69841 1.35396 1.35396 9.69839 1.35396 19.956V20.044C1.35396 30.3016 9.69841 38.646 19.956 38.646H20.044C30.3016 38.646 38.646 30.3016 38.646 20.044V19.956C38.646 9.69839 30.3016 1.35396 20.044 1.35396H19.956Z" fill="#FFFDFD"/>
<path d="M25.9797 8.53955H14.0215C10.7179 8.53955 8.03027 11.2272 8.03027 14.5308V25.4708C8.03027 28.7744 10.7179 31.4621 14.0215 31.4621H25.9797C29.2834 31.4621 31.971 28.7744 31.971 25.4708V14.5308C31.971 11.2272 29.2834 8.53955 25.9797 8.53955ZM10.1438 14.5308C10.1438 12.3929 11.8836 10.6531 14.0215 10.6531H25.9797C28.1176 10.6531 29.8574 12.3929 29.8574 14.5308V25.4708C29.8574 27.6087 28.1176 29.3485 25.9797 29.3485H14.0215C11.8836 29.3485 10.1438 27.6087 10.1438 25.4708V14.5308Z" fill="#FFFDFD"/>
<path d="M20.0006 25.5725C23.0728 25.5725 25.5735 23.0731 25.5735 19.9996C25.5735 16.9262 23.0741 14.4268 20.0006 14.4268C16.9271 14.4268 14.4277 16.9262 14.4277 19.9996C14.4277 23.0731 16.9271 25.5725 20.0006 25.5725ZM20.0006 16.5416C21.9084 16.5416 23.46 18.0933 23.46 20.001C23.46 21.9087 21.9084 23.4604 20.0006 23.4604C18.0929 23.4604 16.5413 21.9087 16.5413 20.001C16.5413 18.0933 18.0929 16.5416 20.0006 16.5416Z" fill="#FFFDFD"/>
<path d="M26.0894 15.3268C26.9167 15.3268 27.591 14.6539 27.591 13.8253C27.591 12.9967 26.918 12.3237 26.0894 12.3237C25.2608 12.3237 24.5879 12.9967 24.5879 13.8253C24.5879 14.6539 25.2608 15.3268 26.0894 15.3268Z" fill="#FFFDFD"/>
</svg>
