<svg width="160" height="116" viewBox="0 0 160 116" fill="none" xmlns="http://www.w3.org/2000/svg">
<g clip-path="url(#clip0_4329_1115)">
<path d="M139.092 102.687C138.669 102.754 138.28 102.822 137.922 102.89C137.598 102.957 137.305 103.025 137.045 103.093C135.064 103.093 133.408 102.602 132.076 101.622C130.939 100.742 130.452 99.6092 130.615 98.2228C130.42 97.4112 130.42 93.8774 130.615 87.6213V86.6575C130.615 85.4063 130.339 84.6455 129.786 84.3749C129.462 84.2735 128.763 84.2228 127.692 84.2228C126.295 84.8653 125.321 84.6624 124.768 83.6141C124.606 83.6141 124.492 83.3604 124.427 82.8532C124.395 82.2107 124.703 81.8556 125.353 81.788C125.418 81.788 125.532 81.788 125.694 81.788C125.856 81.788 126.051 81.8049 126.279 81.8387C128.195 82.0078 129.429 81.7711 129.981 81.1286C130.404 80.3508 130.615 78.7445 130.615 76.3097C130.615 75.8025 130.891 75.4136 131.443 75.1431C131.54 75.1092 131.654 75.0923 131.784 75.0923C132.823 75.2276 133.408 75.6334 133.538 76.3097C133.927 77.1551 134.122 78.3725 134.122 79.9619C134.187 81.1117 134.772 81.7203 135.876 81.788H144.061C144.418 81.7203 144.629 81.974 144.694 82.5488C144.759 83.1237 144.548 83.4788 144.061 83.6141C143.834 83.6479 143.298 83.6817 142.453 83.7155C141.641 83.7493 140.504 83.8001 139.043 83.8677C138.426 83.9015 137.857 83.9522 137.338 84.0199C136.818 84.0875 136.331 84.1551 135.876 84.2228C134.967 84.2228 134.415 84.358 134.22 84.6286C134.025 84.8991 133.798 85.5754 133.538 86.6575C133.538 87.0633 133.538 87.5706 133.538 88.1793C133.57 88.788 133.603 89.515 133.635 90.3604C133.7 92.1189 133.716 93.7252 133.684 95.1793C133.684 96.6334 133.651 97.9184 133.586 99.0344C133.586 99.6431 133.814 100.134 134.269 100.506C134.431 100.607 134.577 100.658 134.707 100.658C135.097 100.658 135.957 100.573 137.289 100.404C138.653 100.201 140.472 99.9136 142.746 99.5416C142.908 99.5078 143.054 99.4909 143.184 99.4909C143.314 99.4571 143.395 99.4402 143.428 99.4402C144.175 99.0005 144.775 99.0175 145.23 99.4909C145.62 99.9643 145.425 100.556 144.646 101.266C143.704 101.74 141.852 102.213 139.092 102.687Z" fill="url(#paint0_linear_4329_1115)"/>
<path d="M142.474 84.2151C143.309 84.1816 143.875 84.1472 144.134 84.1086L144.165 84.1041L144.195 84.0958C144.533 84.0019 144.829 83.8138 145.014 83.5018C145.194 83.1995 145.231 82.8462 145.191 82.4927C145.155 82.1724 145.071 81.8471 144.872 81.6076C144.648 81.3396 144.338 81.2435 144.021 81.288H135.892C135.434 81.2574 135.149 81.121 134.97 80.9344C134.788 80.7448 134.652 80.4385 134.622 79.9472C134.621 78.3665 134.432 77.0878 134.016 76.1532C133.915 75.7105 133.665 75.3498 133.287 75.0874C132.905 74.8225 132.413 74.67 131.848 74.5965L131.816 74.5923H131.784C131.612 74.5923 131.441 74.6145 131.279 74.6707L131.25 74.6807L131.223 74.6941C130.893 74.8557 130.612 75.0689 130.414 75.3482C130.212 75.6327 130.115 75.9594 130.115 76.3097C130.115 77.515 130.062 78.5017 129.961 79.2754C129.863 80.0189 129.724 80.5277 129.568 80.8404C129.387 81.0282 129.07 81.1966 128.547 81.2969C127.996 81.4027 127.264 81.4228 126.337 81.3419C126.1 81.3072 125.885 81.288 125.694 81.288H125.692H125.69H125.688H125.687H125.685H125.683H125.681H125.679H125.677H125.675H125.673H125.671H125.669H125.667H125.665H125.663H125.661H125.659H125.657H125.655H125.653H125.651H125.649H125.647H125.645H125.643H125.641H125.639H125.637H125.635H125.633H125.631H125.629H125.627H125.625H125.623H125.621H125.619H125.618H125.616H125.614H125.612H125.61H125.608H125.606H125.604H125.602H125.6H125.598H125.596H125.594H125.592H125.59H125.588H125.586H125.584H125.582H125.58H125.578H125.576H125.574H125.572H125.57H125.568H125.566H125.564H125.562H125.56H125.558H125.556H125.554H125.552H125.55H125.548H125.546H125.544H125.542H125.54H125.538H125.536H125.534H125.532H125.53H125.528H125.526H125.524H125.522H125.52H125.518H125.516H125.514H125.512H125.51H125.508H125.506H125.504H125.502H125.5H125.498H125.496H125.494H125.493H125.491H125.489H125.487H125.485H125.483H125.481H125.479H125.477H125.475H125.473H125.471H125.469H125.467H125.465H125.463H125.461H125.459H125.457H125.455H125.453H125.451H125.449H125.447H125.445H125.443H125.441H125.439H125.437H125.435H125.433H125.431H125.429H125.427H125.425H125.423H125.421H125.419H125.417H125.415H125.413H125.411H125.409H125.407H125.405H125.403H125.401H125.399H125.397H125.395H125.393H125.391H125.389H125.387H125.385H125.383H125.381H125.379H125.377H125.375H125.373H125.371H125.369H125.368H125.366H125.364H125.362H125.36H125.358H125.356H125.354H125.327L125.301 81.2907C124.9 81.3325 124.522 81.472 124.257 81.777C123.991 82.0834 123.908 82.4764 123.928 82.8784L123.929 82.8976L123.931 82.9167C123.966 83.1855 124.018 83.4338 124.105 83.6283C124.154 83.7377 124.252 83.9085 124.422 84.0156C124.749 84.552 125.211 84.9169 125.811 85.042C126.417 85.1682 127.09 85.0336 127.798 84.7229C128.279 84.7245 128.673 84.737 128.983 84.7595C129.287 84.7816 129.485 84.8119 129.599 84.8412C129.716 84.9099 129.838 85.0457 129.938 85.319C130.048 85.6234 130.115 86.0619 130.115 86.6575V87.6135C130.017 90.7397 129.968 93.1906 129.968 94.9637C129.968 95.8507 129.981 96.5723 130.005 97.1261C130.027 97.6062 130.059 97.9898 130.109 98.2485C129.955 99.778 130.523 101.052 131.77 102.017L131.78 102.024C133.213 103.08 134.979 103.593 137.045 103.593H137.109L137.171 103.576C137.421 103.512 137.703 103.446 138.02 103.38C138.371 103.314 138.754 103.247 139.171 103.18L142.453 83.7155M142.474 84.2151L142.453 83.7155M142.474 84.2151C141.663 84.2488 140.528 84.2995 139.068 84.3671M142.453 83.7155C141.641 83.7493 140.504 83.8001 139.043 83.8677M139.068 84.3671C139.069 84.367 139.07 84.367 139.07 84.3669L139.043 83.8677M139.068 84.3671C139.067 84.3671 139.067 84.3671 139.066 84.3672L139.043 83.8677M139.068 84.3671L139.043 83.8677M134.038 86.717V86.7153V86.7128V86.7104V86.708V86.7056V86.7031V86.7007V86.6983V86.6959V86.6935V86.6911V86.6887V86.6862V86.6838V86.6814V86.679V86.6766V86.6742V86.6719V86.6695V86.6671V86.6647V86.6623V86.6599V86.6575H133.538L134.024 86.7743C134.029 86.755 134.033 86.736 134.038 86.717ZM134.038 88.166C134.037 88.1615 134.037 88.1571 134.037 88.1526L133.538 88.1793H134.038V88.1757V88.1722V88.1686V88.166ZM134.184 95.1849C134.184 95.183 134.184 95.1811 134.184 95.1793H133.684L134.184 95.1905C134.184 95.1886 134.184 95.1867 134.184 95.1849ZM134.086 99.048C134.086 99.0435 134.086 99.0389 134.086 99.0344H133.586L134.086 99.0634C134.086 99.0583 134.086 99.0532 134.086 99.048ZM134.56 100.097C134.551 100.093 134.543 100.087 134.533 100.082L134.269 100.506L134.585 100.119C134.577 100.112 134.568 100.105 134.56 100.097ZM137.221 99.9086C137.219 99.9088 137.217 99.9091 137.215 99.9094L137.289 100.404L137.226 99.9079C137.224 99.9081 137.223 99.9084 137.221 99.9086ZM142.655 99.0498C142.651 99.0506 142.647 99.0513 142.644 99.0521L142.746 99.5416L142.665 99.0482C142.661 99.0487 142.658 99.0493 142.655 99.0498ZM143.117 98.992C143.098 98.9967 143.078 99.0017 143.058 99.007L143.184 99.4909V99.0262L143.428 99.4402V98.9402C143.366 98.9402 143.303 98.9508 143.262 98.9589C143.236 98.9734 143.21 98.9882 143.184 99.0034L143.117 98.992Z" stroke="#7987F4" stroke-opacity="0.5"/>
<path d="M122.725 100.769C117.689 103.627 112.619 103.849 107.516 101.432C106.382 100.888 105.165 100.173 103.864 99.2878C101.73 97.8243 100.996 95.6121 101.663 92.6511C102.063 88.2946 103.864 84.8401 107.066 82.2875C110.068 79.9732 113.586 78.9862 117.622 79.3265C118.756 78.7479 119.84 79.2414 120.874 80.807C120.94 80.9432 121.007 81.0623 121.074 81.1644C121.14 81.2665 121.207 81.3856 121.274 81.5218C122.575 82.8151 122.791 83.9042 121.924 84.7891C121.824 84.8571 121.724 84.9422 121.624 85.0443C121.524 85.1124 121.407 85.1805 121.274 85.2485C120.974 85.5549 120.49 85.4187 119.823 84.8401C119.223 84.2956 118.739 83.9382 118.372 83.768C115.237 81.1814 112.136 81.1644 109.067 83.717C108.934 83.8531 108.784 83.9893 108.617 84.1254C108.484 84.2275 108.35 84.3466 108.217 84.4828C107.683 85.3336 107.166 86.3206 106.666 87.4438C106.199 88.5329 105.749 89.7751 105.315 91.1706C104.548 93.587 105.032 95.8163 106.766 97.8584C108.1 99.4239 109.784 100.394 111.819 100.769C113.353 100.769 114.954 100.649 116.621 100.411C118.322 100.139 120.107 99.7643 121.974 99.2878C122.475 98.8113 122.891 98.8454 123.225 99.3899C123.358 99.6282 123.425 99.8494 123.425 100.054C123.425 100.054 123.408 100.105 123.375 100.207C123.342 100.275 123.292 100.394 123.225 100.564C123.092 100.7 122.925 100.769 122.725 100.769Z" fill="url(#paint1_linear_4329_1115)"/>
<path d="M121.492 80.8909C121.559 80.9928 121.623 81.1049 121.685 81.2259C122.332 81.8822 122.77 82.5441 122.902 83.211C123.047 83.9383 122.815 84.5945 122.281 85.139L122.247 85.1745L122.205 85.2025C122.137 85.249 122.062 85.3117 121.981 85.3943L121.946 85.4298L121.905 85.4577C121.802 85.528 121.688 85.5956 121.565 85.6609C121.272 85.9144 120.905 85.9572 120.551 85.8575C120.203 85.7596 119.849 85.5242 119.495 85.2178L119.487 85.2105C118.895 84.6729 118.457 84.3585 118.162 84.2216L118.104 84.1946L118.054 84.1537C116.548 82.9107 115.096 82.323 113.692 82.3153C112.295 82.3076 110.869 82.8735 109.406 84.0857C109.263 84.2302 109.105 84.3724 108.933 84.5127L108.927 84.5177L108.921 84.5225C108.82 84.5994 108.717 84.69 108.611 84.7952C108.103 85.6111 107.607 86.5599 107.124 87.644C106.666 88.7133 106.222 89.9378 105.793 91.3189L105.792 91.3218C105.08 93.5631 105.517 95.6148 107.147 97.5345C108.396 99.0004 109.963 99.9088 111.865 100.268C113.358 100.266 114.918 100.149 116.546 99.9166C118.193 99.6528 119.922 99.292 121.731 98.8337C122.002 98.6024 122.33 98.4272 122.703 98.4576C123.141 98.4934 123.447 98.7945 123.651 99.1288L123.656 99.1371L123.661 99.1456C123.823 99.4343 123.925 99.7398 123.925 100.054V100.133L123.9 100.209V100.211L123.897 100.219L123.888 100.247L123.85 100.362L123.839 100.395L123.824 100.427C123.801 100.475 123.757 100.577 123.69 100.747L123.653 100.842L123.582 100.914C123.384 101.116 123.14 101.231 122.87 101.261C117.73 104.143 112.523 104.356 107.302 101.884L107.3 101.883C106.139 101.325 104.9 100.597 103.583 99.7012L103.582 99.7002C102.435 98.9139 101.644 97.9096 101.239 96.6884C100.839 95.4821 100.828 94.1033 101.168 92.5731C101.586 88.1064 103.446 84.534 106.755 81.8966L106.761 81.8916C109.835 79.5216 113.433 78.5007 117.528 78.8173C118.178 78.525 118.845 78.513 119.492 78.8077C120.156 79.1097 120.749 79.7116 121.291 80.5315L121.309 80.5582L121.323 80.587C121.382 80.7089 121.439 80.8095 121.492 80.8909ZM121.492 80.8909L121.074 81.1644" stroke="#7987F4" stroke-opacity="0.5"/>
<path d="M94.9021 100.905C91.9747 102.323 88.7811 102.471 85.3215 101.35C84.5231 101.119 83.0594 100.526 80.9304 99.5692C78.1693 97.7226 76.6724 95.2661 76.4395 92.1995C76.373 90.8146 76.5393 89.5286 76.9385 88.3415C78.003 84.0219 80.6476 81.1697 84.8724 79.7848C85.4047 79.6199 85.9536 79.488 86.5191 79.3891C87.0846 79.2572 87.6501 79.1583 88.2156 79.0923H91.6088C94.6692 79.0923 96.7816 79.7683 97.9459 81.1202C98.7775 82.2084 99.526 84.1703 100.191 87.0061C100.69 87.9294 100.391 88.6713 99.2932 89.2318C98.9938 89.3637 98.6445 89.5121 98.2453 89.677C97.58 89.677 95.4676 89.8748 91.9081 90.2705C89.6128 90.5013 87.7166 90.5013 86.2197 90.2705C84.0241 90.2705 82.261 90.5013 80.9304 90.963C80.3316 93.2711 80.6643 95.2001 81.9284 96.7499C82.1945 97.0467 82.5105 97.327 82.8765 97.5907C84.8391 99.0746 86.4525 99.8989 87.7166 100.064C88.7479 100.163 89.8124 99.9978 90.9102 99.5692C92.6067 99.0086 93.9873 98.58 95.0518 98.2832C96.1495 97.9535 96.9313 97.7226 97.397 97.5907C97.7297 97.228 98.1289 97.2115 98.5946 97.5413C99.2266 97.937 99.1934 98.514 98.4948 99.2724C98.4283 99.3713 98.3451 99.4703 98.2453 99.5692C97.9792 99.833 97.264 100.13 96.0996 100.46C95.6672 100.592 95.268 100.74 94.9021 100.905ZM82.6769 87.9458C83.1426 88.2096 83.6582 88.3415 84.2237 88.3415C85.3548 88.3415 88.8809 88.1437 94.8023 87.748C95.0684 87.715 95.3179 87.6985 95.5508 87.6985C95.7836 87.6985 95.9998 87.6821 96.1994 87.6491C97.264 87.5831 97.5966 86.7918 97.1974 85.275C96.7982 83.89 96.1163 82.8184 95.1516 82.06C94.8189 81.8292 94.5195 81.7138 94.2534 81.7138H91.6088C87.4838 81.0543 84.5564 82.027 82.8266 84.632C82.5937 84.9617 82.3941 85.3079 82.2278 85.6706C81.7288 86.6599 81.8785 87.4183 82.6769 87.9458Z" fill="url(#paint2_linear_4329_1115)"/>
<path d="M80.652 99.9848L80.6869 100.008L80.7251 100.025C82.8438 100.977 84.3357 101.584 85.1745 101.828C88.7358 102.98 92.0596 102.835 95.1132 101.358C95.4546 101.204 95.8301 101.065 96.2404 100.939C96.83 100.772 97.3188 100.61 97.7005 100.452C98.0678 100.299 98.3906 100.129 98.5969 99.9243C98.7061 99.8161 98.8037 99.7029 98.8868 99.5842C99.2473 99.1868 99.5162 98.7541 99.5424 98.2996C99.5724 97.7798 99.2837 97.3872 98.8717 97.1251C98.5889 96.9274 98.2688 96.7926 97.9249 96.8068C97.6165 96.8195 97.3525 96.9491 97.1364 97.145C96.6583 97.2818 95.9163 97.5013 94.9123 97.8029C93.8377 98.1026 92.4505 98.5335 90.7529 99.0944L90.7403 99.0986L90.7279 99.1034C89.6961 99.5063 88.7131 99.6556 87.7726 99.5669C86.6435 99.4169 85.1196 98.6601 83.1776 97.1919L83.1684 97.1851C82.8316 96.9423 82.5457 96.6885 82.308 96.4247C81.2167 95.0811 80.8752 93.4126 81.3496 91.3514C82.5707 90.9723 84.1754 90.773 86.1815 90.7705C87.7295 91.0043 89.6589 90.9992 91.9578 90.768L91.963 90.7675C95.538 90.37 97.6147 90.177 98.2449 90.177H98.3441L98.4358 90.1391C98.8375 89.9732 99.1905 89.8233 99.4943 89.6894L99.5074 89.6836L99.5202 89.6771C100.121 89.3704 100.591 88.9715 100.805 88.4421C101.018 87.9132 100.935 87.36 100.663 86.8298C99.9992 84.0178 99.2369 81.9865 98.3428 80.8166L98.3339 80.805L98.3244 80.7939C97.0152 79.2738 94.7149 78.5923 91.6084 78.5923H88.2152H88.1862L88.1573 78.5957C87.5773 78.6633 86.9977 78.7645 86.4187 78.899C85.8378 79.0012 85.2728 79.1372 84.7241 79.3072L84.7163 79.3097C80.334 80.7462 77.5666 83.7261 76.4576 88.2019C76.0413 89.4484 75.8708 90.7906 75.9397 92.2235L75.9405 92.2373C76.1861 95.4706 77.7751 98.0608 80.652 99.9848ZM96.1681 87.15L96.1427 87.1516L96.1175 87.1558C95.9486 87.1837 95.7599 87.1985 95.5504 87.1985C95.2984 87.1985 95.033 87.2161 94.7547 87.25C88.8326 87.6457 85.3324 87.8415 84.2233 87.8415C83.7454 87.8415 83.3204 87.7325 82.938 87.5193C82.6322 87.3135 82.4984 87.0994 82.4559 86.8845C82.4103 86.6531 82.4533 86.3329 82.6738 85.8958L82.678 85.8875L82.6819 85.8791C82.8352 85.5447 83.0193 85.2252 83.2346 84.9204L83.2387 84.9145L83.2427 84.9086C84.8267 82.5233 87.5206 81.5666 91.5294 82.2075L91.5686 82.2138H91.6084H94.253C94.3751 82.2138 94.5707 82.2681 94.8541 82.4625C95.7153 83.1439 96.3411 84.1143 96.715 85.4079C96.9053 86.1335 96.8863 86.5737 96.786 86.8123C96.7126 86.987 96.5659 87.1254 96.1681 87.15Z" stroke="#7987F4" stroke-opacity="0.5"/>
<path d="M72.593 73.1708C72.121 73.2388 71.6962 73.1538 71.3187 72.9156C70.8152 72.9156 70.2646 72.5413 69.6667 71.7927C69.2892 71.3164 69.0689 70.84 69.006 70.3637C68.6913 69.7172 68.9116 69.0366 69.6667 68.3221L70.1387 67.8117C70.7051 67.1992 71.5546 66.9781 72.6874 67.1482C72.9391 67.1822 73.1436 67.2163 73.301 67.2503C73.4583 67.2503 73.5841 67.2503 73.6785 67.2503C74.8113 67.8627 75.3934 68.6964 75.4248 69.7512C75.4248 70.5678 75.0473 71.3844 74.2921 72.201L74.2449 72.2521C73.7415 72.5243 73.3482 72.7455 73.065 72.9156C72.8132 73.0517 72.6559 73.1368 72.593 73.1708ZM72.8762 108.643C71.9637 112.079 70.1702 113.525 67.4956 112.981C66.6146 112.777 65.6707 112.368 64.6638 111.756C64.5379 111.654 63.6884 111.229 62.1151 110.48C60.7936 109.867 59.8968 109.034 59.4248 107.979C59.771 106.38 60.5733 105.767 61.8319 106.142C62.3354 106.312 62.6972 106.516 62.9175 106.754C62.9804 106.822 63.0591 106.907 63.1535 107.009C63.2479 107.111 63.3423 107.247 63.4366 107.418C63.8142 107.962 64.2233 108.37 64.6638 108.643C68.6284 111.058 70.768 110.004 71.0827 105.478C71.1141 105.274 71.1299 105.07 71.1299 104.866C71.1299 104.662 71.1299 104.44 71.1299 104.202C71.6962 97.1931 71.6962 90.2178 71.1299 83.2765C69.9657 82.8682 68.5969 82.664 67.0237 82.664C66.3314 82.664 65.9853 82.3918 65.9853 81.8474C66.0482 81.1669 66.4573 80.6735 67.2125 80.3673C67.4956 80.2312 67.826 80.1631 68.2036 80.1631C69.1161 80.061 70.2016 79.9079 71.4602 79.7038C72.9391 79.4656 73.8359 79.4826 74.1505 79.7548C74.4652 80.061 74.6225 81.2519 74.6225 83.3275V85.8284C74.6225 86.2708 74.6225 86.8492 74.6225 87.5637C74.6225 88.2442 74.6382 89.0268 74.6697 89.9115C74.7326 93.0079 74.7012 95.7129 74.5753 98.0267C74.4494 100.306 74.2606 102.178 74.0089 103.641C73.8831 104.491 73.6943 105.308 73.4425 106.091C73.4111 106.907 73.2223 107.758 72.8762 108.643Z" fill="url(#paint3_linear_4329_1115)"/>
<path d="M63.285 106.415L63.521 106.67C63.6457 106.805 63.7582 106.969 63.8614 107.152C64.2058 107.644 64.5628 107.992 64.9258 108.216C66.8921 109.414 68.2049 109.617 69.0213 109.215C69.8289 108.817 70.4285 107.684 70.5843 105.443L70.5857 105.423L70.5889 105.402C70.6165 105.223 70.6303 105.044 70.6303 104.866V104.863V104.861V104.859V104.857V104.855V104.853V104.851V104.849V104.847V104.844V104.842V104.84V104.838V104.836V104.834V104.832V104.83V104.827V104.826V104.824V104.822V104.82V104.818V104.815V104.813V104.811V104.809V104.807V104.805V104.803V104.801V104.799V104.798V104.796V104.794V104.792V104.79V104.787V104.785V104.783V104.781V104.779V104.776V104.774V104.771V104.77V104.768V104.765V104.763V104.76V104.758V104.756V104.754V104.752V104.749V104.747V104.744V104.742V104.739V104.737V104.735V104.733V104.731V104.728V104.726V104.723V104.721V104.718V104.716V104.713V104.711V104.708V104.706V104.704V104.702V104.701V104.698V104.696V104.693V104.691V104.688V104.686V104.683V104.681V104.678V104.676V104.674V104.673V104.671V104.668V104.666V104.664V104.662V104.66V104.659V104.657V104.654V104.652V104.649V104.647V104.644V104.642V104.64V104.638V104.635V104.633V104.63V104.628V104.626V104.624V104.621V104.619V104.616V104.614V104.612V104.61V104.607V104.605V104.603V104.601V104.598V104.596V104.593V104.591V104.589V104.587V104.584V104.582V104.58V104.578V104.575V104.573V104.571V104.569V104.566V104.564V104.562V104.56V104.558V104.556V104.553V104.551V104.549V104.547V104.544V104.542V104.54V104.538V104.535V104.534V104.531V104.529V104.527V104.525V104.523V104.521V104.519V104.517V104.514V104.512V104.51V104.508V104.506V104.504V104.502V104.5V104.497V104.495V104.493V104.491V104.489V104.487V104.485V104.483V104.48V104.479V104.476V104.474V104.472V104.47V104.468V104.466V104.464V104.462V104.46V104.458V104.456V104.454V104.452V104.45V104.448V104.446V104.444V104.442V104.44V104.438V104.436V104.434V104.432V104.43V104.428V104.426V104.424V104.422V104.42V104.418V104.416V104.414V104.412V104.41V104.408V104.406V104.404V104.402V104.4V104.398V104.396V104.394V104.392V104.39V104.388V104.386V104.384V104.382V104.38V104.378V104.376V104.374V104.372V104.37V104.368V104.366V104.363V104.361V104.359V104.357V104.355V104.353V104.351V104.349V104.347V104.345V104.343V104.341V104.34V104.338V104.336V104.334V104.332V104.33V104.328V104.325V104.323V104.321V104.319V104.317V104.315V104.313V104.31V104.308V104.306V104.304V104.302V104.299V104.298V104.295V104.293V104.291V104.289V104.287V104.285V104.284V104.282V104.28V104.278V104.276V104.273V104.271V104.269V104.267V104.265V104.262V104.26V104.258V104.256V104.254V104.251V104.249V104.247V104.244V104.242V104.24V104.238V104.236V104.233V104.23V104.229V104.226V104.224V104.222V104.22V104.218V104.216V104.215V104.213V104.211V104.208V104.206V104.204V104.202V104.182L70.6319 104.162C71.1871 97.2903 71.1959 90.4522 70.6584 83.6471C69.6249 83.328 68.4158 83.1637 67.0241 83.1637C66.626 83.1637 66.2352 83.0877 65.9362 82.8526C65.6143 82.5994 65.4857 82.2326 65.4857 81.8471V81.824L65.4878 81.801C65.5712 80.8996 66.1308 80.2705 67.0108 79.9094C67.3621 79.7435 67.7542 79.6663 68.175 79.6629C69.0714 79.562 70.14 79.4111 71.3811 79.2098C72.1333 79.0887 72.7605 79.0283 73.2518 79.0377C73.4977 79.0423 73.7239 79.0646 73.9219 79.1119C74.1157 79.1581 74.3161 79.2362 74.478 79.3764L74.4891 79.386L74.4996 79.3962C74.6676 79.5596 74.7672 79.7868 74.8343 79.9997C74.9053 80.225 74.9592 80.4988 75.0006 80.8119C75.0835 81.4391 75.1229 82.2808 75.1229 83.3272V85.8281V85.8307V85.8333V85.8359V85.8385V85.8411V85.8437V85.8463V85.8489V85.8516V85.8542V85.8568V85.8594V85.8621V85.8647V85.8673V85.87V85.8726V85.8753V85.8779V85.8806V85.8832V85.8859V85.8886V85.8912V85.8939V85.8966V85.8992V85.9019V85.9046V85.9073V85.91V85.9126V85.9153V85.918V85.9207V85.9234V85.9261V85.9289V85.9316V85.9343V85.937V85.9397V85.9424V85.9452V85.9479V85.9506V85.9534V85.9561V85.9589V85.9616V85.9643V85.9671V85.9699V85.9726V85.9754V85.9781V85.9809V85.9837V85.9865V85.9892V85.992V85.9948V85.9976V86.0004V86.0032V86.006V86.0088V86.0116V86.0144V86.0172V86.02V86.0228V86.0256V86.0284V86.0313V86.0341V86.0369V86.0398V86.0426V86.0454V86.0483V86.0511V86.054V86.0568V86.0597V86.0625V86.0654V86.0683V86.0711V86.074V86.0769V86.0797V86.0826V86.0855V86.0884V86.0913V86.0942V86.0971V86.1V86.1029V86.1058V86.1087V86.1116V86.1145V86.1174V86.1203V86.1233V86.1262V86.1291V86.1321V86.135V86.1379V86.1409V86.1438V86.1468V86.1497V86.1527V86.1556V86.1586V86.1616V86.1645V86.1675V86.1705V86.1734V86.1764V86.1794V86.1824V86.1854V86.1884V86.1914V86.1944V86.1974V86.2004V86.2034V86.2064V86.2094V86.2124V86.2154V86.2185V86.2215V86.2245V86.2276V86.2306V86.2336V86.2367V86.2397V86.2428V86.2458V86.2489V86.2519V86.255V86.2581V86.2611V86.2642V86.2673V86.2703V86.2734V86.2765V86.2796V86.2827V86.2858V86.2889V86.292V86.2951V86.2982V86.3013V86.3044V86.3075V86.3106V86.3137V86.3169V86.32V86.3231V86.3262V86.3294V86.3325V86.3357V86.3388V86.342V86.3451V86.3483V86.3514V86.3546V86.3577V86.3609V86.3641V86.3673V86.3704V86.3736V86.3768V86.38V86.3832V86.3864V86.3895V86.3927V86.3959V86.3992V86.4024V86.4056V86.4088V86.412V86.4152V86.4184V86.4217V86.4249V86.4281V86.4314V86.4346V86.4378V86.4411V86.4443V86.4476V86.4508V86.4541V86.4574V86.4606V86.4639V86.4672V86.4704V86.4737V86.477V86.4803V86.4835V86.4868V86.4901V86.4934V86.4967V86.5V86.5033V86.5066V86.5099V86.5132V86.5166V86.5199V86.5232V86.5265V86.5299V86.5332V86.5365V86.5399V86.5432V86.5466V86.5499V86.5532V86.5566V86.56V86.5633V86.5667V86.57V86.5734V86.5768V86.5802V86.5835V86.5869V86.5903V86.5937V86.5971V86.6005V86.6039V86.6073V86.6107V86.6141V86.6175V86.6209V86.6243V86.6277V86.6312V86.6346V86.638V86.6415V86.6449V86.6483V86.6518V86.6552V86.6587V86.6621V86.6656V86.669V86.6725V86.6759V86.6794V86.6829V86.6863V86.6898V86.6933V86.6968V86.7003V86.7037V86.7072V86.7107V86.7142V86.7177V86.7212V86.7247V86.7282V86.7318V86.7353V86.7388V86.7423V86.7458V86.7494V86.7529V86.7564V86.76V86.7635V86.7671V86.7706V86.7742V86.7777V86.7813V86.7848V86.7884V86.7919V86.7955V86.7991V86.8027V86.8062V86.8098V86.8134V86.817V86.8206V86.8242V86.8278V86.8314V86.835V86.8386V86.8422V86.8458V86.8494V86.853V86.8567V86.8603V86.8639V86.8675V86.8712V86.8748V86.8784V86.8821V86.8857V86.8894V86.893V86.8967V86.9004V86.904V86.9077V86.9113V86.915V86.9187V86.9224V86.9261V86.9297V86.9334V86.9371V86.9408V86.9445V86.9482V86.9519V86.9556V86.9593V86.963V86.9667V86.9705V86.9742V86.9779V86.9816V86.9854V86.9891V86.9928V86.9966V87.0003V87.0041V87.0078V87.0116V87.0153V87.0191V87.0228V87.0266V87.0304V87.0341V87.0379V87.0417V87.0455V87.0493V87.053V87.0568V87.0606V87.0644V87.0682V87.072V87.0758V87.0796V87.0834V87.0873V87.0911V87.0949V87.0987V87.1026V87.1064V87.1102V87.1141V87.1179V87.1217V87.1256V87.1294V87.1333V87.1371V87.141V87.1449V87.1487V87.1526V87.1565V87.1603V87.1642V87.1681V87.172V87.1759V87.1797V87.1836V87.1875V87.1914V87.1953V87.1992V87.2031V87.2071V87.211V87.2149V87.2188V87.2227V87.2267V87.2306V87.2345V87.2385V87.2424V87.2463V87.2503V87.2542V87.2582V87.2621V87.2661V87.2701V87.274V87.278V87.282V87.2859V87.2899V87.2939V87.2979V87.3019V87.3058V87.3098V87.3138V87.3178V87.3218V87.3258V87.3298V87.3339V87.3379V87.3419V87.3459V87.3499V87.354V87.358V87.362V87.3661V87.3701V87.3741V87.3782V87.3822V87.3863V87.3903V87.3944V87.3985V87.4025V87.4066V87.4107V87.4147V87.4188V87.4229V87.427V87.4311V87.4351V87.4392V87.4433V87.4474V87.4515V87.4556V87.4597V87.4638V87.468V87.4721V87.4762V87.4803V87.4844V87.4886V87.4927V87.4968V87.501V87.5051V87.5093V87.5134V87.5176V87.5217V87.5259V87.53V87.5342V87.5384V87.5425V87.5467V87.5509V87.5551V87.5592V87.5634C75.1229 88.2366 75.1385 89.013 75.1698 89.8934L75.17 89.9011C75.2331 93.006 75.2016 95.7245 75.0749 98.054C74.9487 100.341 74.7588 102.231 74.5031 103.72C74.3768 104.571 74.1892 105.391 73.9396 106.179C73.8983 107.03 73.6999 107.903 73.3526 108.798C72.8828 110.553 72.1693 111.881 71.1609 112.694C70.1264 113.528 68.8497 113.767 67.3963 113.471L67.3832 113.468C66.4373 113.249 65.4437 112.815 64.4043 112.183L64.3755 112.166L64.3492 112.144C64.3536 112.148 64.352 112.147 64.3418 112.141C64.3241 112.13 64.2804 112.104 64.1963 112.059C64.0811 111.996 63.9193 111.913 63.7088 111.807C63.2889 111.597 62.6875 111.306 61.9029 110.933C60.5026 110.283 59.5016 109.374 58.9689 108.183L58.9019 108.034L58.9366 107.873C59.1202 107.025 59.4443 106.334 59.9832 105.923C60.5483 105.492 61.2431 105.445 61.9748 105.662L61.9837 105.665L61.9924 105.668C62.5301 105.85 62.9828 106.088 63.285 106.415ZM63.285 106.415L62.9179 106.754M72.6647 73.6654L72.7529 73.6527L72.8312 73.6103L73.3032 73.3551L73.3131 73.3497L73.3229 73.3439C73.5966 73.1795 73.9823 72.9624 74.4831 72.6916L74.5561 72.6522L74.6124 72.5913L74.6596 72.5402C75.4689 71.6651 75.9252 70.733 75.9252 69.7509V69.7434L75.925 69.736C75.887 68.4612 75.1658 67.4855 73.9167 66.8102L73.8055 66.75H73.6789H73.6778H73.6767H73.6756H73.6745H73.6734H73.6722H73.6711H73.67H73.6689H73.6677H73.6666H73.6655H73.6643H73.6632H73.662H73.6609H73.6597H73.6586H73.6574H73.6562H73.6551H73.6539H73.6527H73.6516H73.6504H73.6492H73.648H73.6468H73.6456H73.6445H73.6433H73.6421H73.6409H73.6397H73.6385H73.6372H73.636H73.6348H73.6336H73.6324H73.6312H73.6299H73.6287H73.6275H73.6262H73.625H73.6238H73.6225H73.6213H73.62H73.6188H73.6175H73.6163H73.615H73.6137H73.6125H73.6112H73.6099H73.6087H73.6074H73.6061H73.6048H73.6035H73.6022H73.6009H73.5997H73.5984H73.5971H73.5958H73.5944H73.5931H73.5918H73.5905H73.5892H73.5879H73.5865H73.5852H73.5839H73.5826H73.5812H73.5799H73.5785H73.5772H73.5759H73.5745H73.5732H73.5718H73.5704H73.5691H73.5677H73.5663H73.565H73.5636H73.5622H73.5608H73.5595H73.5581H73.5567H73.5553H73.5539H73.5525H73.5511H73.5497H73.5483H73.5469H73.5455H73.5441H73.5427H73.5412H73.5398H73.5384H73.537H73.5355H73.5341H73.5327H73.5312H73.5298H73.5284H73.5269H73.5255H73.524H73.5225H73.5211H73.5196H73.5182H73.5167H73.5152H73.5137H73.5123H73.5108H73.5093H73.5078H73.5063H73.5048H73.5033H73.5019H73.5004H73.4989H73.4973H73.4958H73.4943H73.4928H73.4913H73.4898H73.4883H73.4867H73.4852H73.4837H73.4821H73.4806H73.4791H73.4775H73.476H73.4744H73.4729H73.4713H73.4698H73.4682H73.4666H73.4651H73.4635H73.4619H73.4604H73.4588H73.4572H73.4556H73.454H73.4524H73.4509H73.4493H73.4477H73.4461H73.4445H73.4429H73.4412H73.4396H73.438H73.4364H73.4348H73.4332H73.4315H73.4299H73.4283H73.4266H73.425H73.4234H73.4217H73.4201H73.4184H73.4168H73.4151H73.4134H73.4118H73.4101H73.4085H73.4068H73.4051H73.4034H73.4018H73.4001H73.3984H73.3967H73.395H73.3933H73.3916H73.3899H73.3882H73.3865H73.3848H73.3831H73.3814H73.3797H73.378H73.3762H73.3745H73.3728H73.3711H73.3693H73.3676H73.3659H73.3641H73.3624H73.3606H73.3589H73.3571H73.3554H73.3536C73.1889 66.7164 72.9893 66.6842 72.7584 66.6529C71.5302 66.4692 70.4892 66.6964 69.772 67.4719L69.3111 67.9704C68.9047 68.3575 68.6034 68.7707 68.4599 69.2141C68.3182 69.6518 68.34 70.0906 68.5222 70.5073C68.6124 71.0655 68.875 71.598 69.2753 72.103L69.2764 72.1045C69.8494 72.8219 70.4807 73.3421 71.1706 73.4082C71.6257 73.66 72.1305 73.7424 72.6647 73.6654Z" stroke="#7987F4" stroke-opacity="0.5"/>
<path d="M60.1748 102.188C57.9807 103.262 55.4209 103.379 52.4954 102.541C49.8358 101.735 47.7747 100.343 46.3119 98.3635C45.4476 95.847 45.2149 93.7164 45.6138 91.9716V88.1466C46.179 84.7242 47.9409 82.107 50.8996 80.2951C51.2653 80.0603 51.6476 79.859 52.0466 79.6912C52.4455 79.4899 52.8444 79.3221 53.2434 79.1879C57.2659 78.6846 61.0557 80.1777 64.6129 83.6672C66.8735 86.2508 67.7711 89.2874 67.3057 92.7769C66.8402 96.1993 65.2611 98.8836 62.5684 100.829C61.837 101.366 61.0391 101.819 60.1748 102.188ZM53.8418 100.276C57 101.182 59.5265 100.628 61.4214 98.6152C61.8536 98.1454 62.2193 97.6253 62.5185 97.0549C62.8509 96.4845 63.1169 95.8638 63.3164 95.1927C63.7485 94.3204 63.9646 93.0286 63.9646 91.3173C63.9646 89.1364 63.7485 87.442 63.3164 86.234C62.9839 84.7242 62.0198 83.4827 60.4241 82.5097C59.1941 81.7379 58.0471 81.4863 56.9833 81.7547C53.9249 82.6271 51.8305 83.9021 50.7002 85.5798C48.772 88.868 48.1404 92.4917 48.8053 96.451C48.8717 97.9944 49.7195 99.0513 51.3484 99.6217C51.5811 99.6217 51.9967 99.7392 52.5951 99.9741C53.26 100.175 53.6755 100.276 53.8418 100.276Z" fill="url(#paint4_linear_4329_1115)"/>
<path d="M52.3505 103.019L52.3576 103.021C55.3666 103.884 58.0548 103.778 60.3829 102.643C61.2761 102.261 62.1031 101.791 62.8627 101.234C65.6704 99.2038 67.3181 96.3952 67.8011 92.8439L67.8013 92.8426C68.2852 89.2144 67.3474 86.0327 64.9892 83.3376L64.9766 83.3232L64.963 83.3099C61.3245 79.7405 57.3899 78.1648 53.1813 78.6914L53.1315 78.6976L53.0839 78.7136C52.6663 78.8541 52.2505 79.0287 51.8367 79.2366C51.4185 79.4136 51.0175 79.6251 50.634 79.8711C47.5542 81.7587 45.709 84.5008 45.1205 88.0647L45.1138 88.1052V88.1462V91.9158C44.7042 93.7739 44.967 95.9866 45.8391 98.5255L45.8641 98.5983L45.9098 98.6602C47.4447 100.738 49.6018 102.187 52.3505 103.019ZM53.9796 99.795L53.912 99.7756H53.8418C53.8392 99.7755 53.8137 99.7741 53.7556 99.7641C53.6974 99.754 53.6206 99.7378 53.5231 99.7142C53.3321 99.6679 53.0782 99.5973 52.7589 99.5008C52.4588 99.3835 52.1951 99.2917 51.9706 99.2283C51.787 99.1764 51.6076 99.1369 51.4454 99.125C50.7313 98.8646 50.2214 98.5125 49.881 98.088C49.5328 97.6539 49.3341 97.11 49.3048 96.4291L49.3035 96.3982L49.2984 96.3678C48.6527 92.523 49.2642 89.0237 51.1235 85.846C52.1608 84.3157 54.119 83.0924 57.1128 82.2373C58.0038 82.0149 59.008 82.2111 60.1584 82.9328L60.1638 82.9361C61.6693 83.8542 62.5309 84.9915 62.8281 86.3412L62.8349 86.3722L62.8456 86.4021C63.2495 87.531 63.4646 89.1591 63.4646 91.3169C63.4646 93.0011 63.2495 94.201 62.8683 94.9704L62.8493 95.0088L62.8371 95.0499C62.6483 95.685 62.3977 96.2688 62.0865 96.8028L62.0809 96.8124L62.0757 96.8223C61.797 97.3537 61.457 97.8372 61.0554 98.2741C60.1724 99.2115 59.1554 99.7979 57.9983 100.052C56.835 100.307 55.5001 100.231 53.9796 99.795Z" stroke="#7987F4" stroke-opacity="0.5"/>
<path d="M35.674 101.751C32.5231 102.252 28.7752 102.202 24.4302 101.6C24.6624 100.864 25.1765 100.262 25.9725 99.794C26.271 99.6268 26.4866 99.4763 26.6193 99.3425C27.1831 98.7071 27.548 97.9714 27.7138 97.1354C27.7138 96.0318 27.7636 94.3597 27.8631 92.1191C28.0289 87.6379 27.9791 84.2771 27.7138 82.0365C27.4485 81.8358 26.6524 81.9194 25.3257 82.2873C23.999 82.6217 22.9377 82.6886 22.1417 82.4879C21.3456 82.4211 21.213 82.0198 21.7437 81.284C22.5065 80.5149 24.0488 79.9129 26.3705 79.4782C26.7354 79.4113 27.0836 79.3611 27.4153 79.3277C27.747 79.2943 28.0455 79.2775 28.3108 79.2775C29.4385 78.8762 30.218 79.1271 30.6491 80.03C30.7155 80.1638 30.7818 80.3142 30.8481 80.4814C30.9145 80.6152 30.9808 80.7657 31.0471 80.9329C31.213 81.1001 31.3788 81.3844 31.5447 81.7857C31.7437 82.1535 31.8929 82.4879 31.9924 82.7889L32.1417 83.1902C34.8946 80.9496 38.0289 79.8293 41.5447 79.8293C42.9045 79.9965 44.0654 80.8159 45.0272 82.2873C45.1599 82.4879 45.2428 82.6719 45.276 82.8391C45.3423 82.9728 45.3921 83.0899 45.4252 83.1902C44.6624 84.4944 43.5513 84.6784 42.0919 83.742C41.7602 83.6417 41.3125 83.441 40.7486 83.1401C39.4883 82.5381 38.4932 82.3542 37.7636 82.5883C37.7304 82.6217 37.6972 82.6384 37.6641 82.6384C35.2097 83.9092 33.5513 85.1967 32.6889 86.5009C31.5944 87.638 31.0471 88.9422 31.0471 90.4136V94.8781C31.0471 95.1122 31.0471 95.3797 31.0471 95.6807C31.0471 95.9816 31.0306 96.3161 30.9974 96.6839C30.8979 97.7206 30.9974 98.3727 31.2959 98.6402C31.7271 98.9078 32.9377 99.1419 34.9277 99.3425C35.5248 99.4094 35.9393 99.6769 36.1715 100.145C36.4037 100.647 36.2379 101.182 35.674 101.751Z" fill="url(#paint5_linear_4329_1115)"/>
<path d="M35.7522 102.244L35.9136 102.219L36.0286 102.103C36.3445 101.784 36.5837 101.441 36.6985 101.071C36.8175 100.687 36.7937 100.3 36.6249 99.9351L36.6191 99.923C36.299 99.2776 35.7194 98.9281 34.983 98.8456L34.9775 98.845C33.9895 98.7454 33.2061 98.6385 32.6218 98.5256C32.0797 98.4207 31.7612 98.3196 31.6074 98.2422C31.5756 98.1969 31.5244 98.0924 31.4913 97.8751C31.4502 97.6062 31.4469 97.2297 31.4947 96.7317L31.495 96.7288C31.5292 96.3492 31.5467 95.9995 31.5467 95.6807V95.6789V95.6771V95.6754V95.6736V95.6719V95.6701V95.6683V95.6666V95.6648V95.6631V95.6613V95.6596V95.6578V95.656V95.6543V95.6525V95.6508V95.649V95.6473V95.6455V95.6438V95.6421V95.6403V95.6386V95.6368V95.6351V95.6333V95.6316V95.6298V95.6281V95.6264V95.6246V95.6229V95.6211V95.6194V95.6177V95.6159V95.6142V95.6125V95.6107V95.609V95.6073V95.6055V95.6038V95.6021V95.6003V95.5986V95.5969V95.5952V95.5934V95.5917V95.59V95.5883V95.5865V95.5848V95.5831V95.5814V95.5797V95.5779V95.5762V95.5745V95.5728V95.5711V95.5694V95.5677V95.5659V95.5642V95.5625V95.5608V95.5591V95.5574V95.5557V95.554V95.5523V95.5506V95.5488V95.5471V95.5454V95.5437V95.542V95.5403V95.5386V95.5369V95.5352V95.5335V95.5318V95.5301V95.5284V95.5267V95.525V95.5234V95.5217V95.52V95.5183V95.5166V95.5149V95.5132V95.5115V95.5098V95.5081V95.5064V95.5048V95.5031V95.5014V95.4997V95.498V95.4963V95.4947V95.493V95.4913V95.4896V95.4879V95.4863V95.4846V95.4829V95.4812V95.4796V95.4779V95.4762V95.4745V95.4729V95.4712V95.4695V95.4679V95.4662V95.4645V95.4629V95.4612V95.4595V95.4579V95.4562V95.4545V95.4529V95.4512V95.4496V95.4479V95.4462V95.4446V95.4429V95.4413V95.4396V95.438V95.4363V95.4346V95.433V95.4313V95.4297V95.428V95.4264V95.4247V95.4231V95.4214V95.4198V95.4182V95.4165V95.4149V95.4132V95.4116V95.4099V95.4083V95.4067V95.405V95.4034V95.4017V95.4001V95.3985V95.3968V95.3952V95.3936V95.3919V95.3903V95.3887V95.387V95.3854V95.3838V95.3821V95.3805V95.3789V95.3773V95.3756V95.374V95.3724V95.3708V95.3691V95.3675V95.3659V95.3643V95.3626V95.361V95.3594V95.3578V95.3562V95.3546V95.3529V95.3513V95.3497V95.3481V95.3465V95.3449V95.3433V95.3417V95.34V95.3384V95.3368V95.3352V95.3336V95.332V95.3304V95.3288V95.3272V95.3256V95.324V95.3224V95.3208V95.3192V95.3176V95.316V95.3144V95.3128V95.3112V95.3096V95.308V95.3064V95.3048V95.3032V95.3017V95.3001V95.2985V95.2969V95.2953V95.2937V95.2921V95.2905V95.289V95.2874V95.2858V95.2842V95.2826V95.281V95.2795V95.2779V95.2763V95.2747V95.2731V95.2716V95.27V95.2684V95.2668V95.2653V95.2637V95.2621V95.2606V95.259V95.2574V95.2558V95.2543V95.2527V95.2511V95.2496V95.248V95.2465V95.2449V95.2433V95.2418V95.2402V95.2386V95.2371V95.2355V95.234V95.2324V95.2309V95.2293V95.2277V95.2262V95.2246V95.2231V95.2215V95.22V95.2184V95.2169V95.2153V95.2138V95.2122V95.2107V95.2091V95.2076V95.2061V95.2045V95.203V95.2014V95.1999V95.1983V95.1968V95.1953V95.1937V95.1922V95.1907V95.1891V95.1876V95.186V95.1845V95.183V95.1814V95.1799V95.1784V95.1769V95.1753V95.1738V95.1723V95.1707V95.1692V95.1677V95.1662V95.1646V95.1631V95.1616V95.1601V95.1586V95.157V95.1555V95.154V95.1525V95.151V95.1495V95.1479V95.1464V95.1449V95.1434V95.1419V95.1404V95.1389V95.1374V95.1358V95.1343V95.1328V95.1313V95.1298V95.1283V95.1268V95.1253V95.1238V95.1223V95.1208V95.1193V95.1178V95.1163V95.1148V95.1133V95.1118V95.1103V95.1088V95.1073V95.1058V95.1043V95.1028V95.1013V95.0999V95.0984V95.0969V95.0954V95.0939V95.0924V95.0909V95.0894V95.088V95.0865V95.085V95.0835V95.082V95.0805V95.0791V95.0776V95.0761V95.0746V95.0732V95.0717V95.0702V95.0687V95.0673V95.0658V95.0643V95.0628V95.0614V95.0599V95.0584V95.057V95.0555V95.054V95.0526V95.0511V95.0496V95.0482V95.0467V95.0452V95.0438V95.0423V95.0409V95.0394V95.0379V95.0365V95.035V95.0336V95.0321V95.0307V95.0292V95.0278V95.0263V95.0248V95.0234V95.0219V95.0205V95.019V95.0176V95.0162V95.0147V95.0133V95.0118V95.0104V95.0089V95.0075V95.006V95.0046V95.0032V95.0017V95.0003V94.9989V94.9974V94.996V94.9945V94.9931V94.9917V94.9902V94.9888V94.9874V94.9859V94.9845V94.9831V94.9817V94.9802V94.9788V94.9774V94.9759V94.9745V94.9731V94.9717V94.9703V94.9688V94.9674V94.966V94.9646V94.9632V94.9617V94.9603V94.9589V94.9575V94.9561V94.9547V94.9532V94.9518V94.9504V94.949V94.9476V94.9462V94.9448V94.9434V94.942V94.9406V94.9392V94.9377V94.9363V94.9349V94.9335V94.9321V94.9307V94.9293V94.9279V94.9265V94.9251V94.9237V94.9223V94.9209V94.9196V94.9182V94.9168V94.9154V94.914V94.9126V94.9112V94.9098V94.9084V94.907V94.9056V94.9043V94.9029V94.9015V94.9001V94.8987V94.8973V94.896V94.8946V94.8932V94.8918V94.8904V94.8891V94.8877V94.8863V94.8849V94.8836V94.8822V94.8808V94.8794V94.8781V90.4136C31.5467 89.0815 32.0367 87.899 33.0487 86.8477L33.0804 86.8148L33.1056 86.7767C33.8906 85.5895 35.4379 84.3612 37.8313 83.1148C37.8916 83.0973 37.9449 83.0716 37.9909 83.0427C38.5324 82.9023 39.353 83.0293 40.5228 83.5865C41.0579 83.8717 41.5133 84.0808 41.8792 84.1994C42.6392 84.6756 43.39 84.9173 44.101 84.7996C44.8492 84.6758 45.4272 84.1765 45.8564 83.4427L45.9705 83.2477L45.8996 83.0333C45.8621 82.9199 45.8113 82.7989 45.7505 82.6721C45.6942 82.4456 45.5848 82.2248 45.4446 82.0126C44.4269 80.4562 43.1503 79.523 41.6053 79.3331L41.5749 79.3293H41.5443C38.1437 79.3293 35.0819 80.3468 32.3736 82.3745C32.2739 82.1198 32.1474 81.8516 31.9963 81.5705C31.8442 81.2065 31.6747 80.8908 31.4764 80.6616C31.4202 80.5246 31.3631 80.3966 31.3049 80.2781C31.2374 80.1092 31.1686 79.9533 31.0983 79.8111C30.8376 79.2669 30.4417 78.865 29.8939 78.6887C29.3847 78.5248 28.8168 78.5798 28.225 78.7781C27.9622 78.7812 27.6751 78.7989 27.3647 78.8302C27.0183 78.8652 26.6566 78.9173 26.28 78.9864L26.2781 78.9867C23.9501 79.4227 22.2687 80.0443 21.3883 80.9319L21.3607 80.9598L21.3377 80.9915C21.1896 81.1969 21.0692 81.4037 20.9977 81.6079C20.9266 81.8111 20.8902 82.0523 20.97 82.2937C21.136 82.7958 21.6495 82.9418 22.0582 82.9824C22.9649 83.2003 24.1072 83.11 25.4476 82.7721L25.4589 82.7691C26.1117 82.5881 26.6118 82.4835 26.9696 82.446C27.0853 82.4338 27.1793 82.4294 27.254 82.4304C27.482 84.6281 27.5204 87.8459 27.3631 92.0988C27.265 94.3063 27.2149 95.97 27.2134 97.0848C27.0618 97.8095 26.7435 98.445 26.2551 98.9991C26.169 99.0829 26.0033 99.2034 25.7278 99.3578L25.7186 99.363C24.8382 99.8808 24.2294 100.574 23.953 101.45L23.7749 102.014L24.3612 102.095C28.7381 102.702 32.5382 102.756 35.7522 102.244Z" stroke="#7987F4" stroke-opacity="0.5"/>
<path d="M10.5725 111.794C11.0285 111.896 11.4031 112.101 11.6962 112.407C12.0219 112.748 12.1848 113.309 12.1848 114.093H5.24705C3.61846 114.093 2.77159 113.803 2.70645 113.224C2.70645 112.714 3.14617 111.692 4.02561 110.16C4.44904 109.683 4.66076 108.577 4.66076 106.84V84.419C4.66076 83.3975 4.23732 82.6995 3.39046 82.325C3.32531 82.2909 3.24388 82.2569 3.14617 82.2228C3.08102 82.1888 2.98331 82.1547 2.85302 82.1207C2.5273 81.9504 2.28301 81.8483 2.12015 81.8142C1.59901 81.8142 1.371 81.5248 1.43615 80.946C1.46872 80.5033 1.69672 80.1288 2.12015 79.8224C4.07446 79.1414 5.54019 78.9371 6.51735 79.2095C7.00593 79.3797 7.42936 79.584 7.78765 79.8224C9.28595 80.3331 10.8982 80.4012 12.6245 80.0267C12.7874 79.9926 12.934 79.9586 13.0642 79.9245C13.1945 79.8905 13.3248 79.8564 13.4551 79.8224C16.9403 79.2435 20.0835 80.7757 22.8846 84.419C24.5784 86.8024 25.4252 89.6625 25.4252 92.9993C25.4252 93.1696 25.3764 93.476 25.2787 93.9187C25.181 94.3613 25.0507 94.9401 24.8878 95.6552C24.8552 95.7914 24.8227 95.9105 24.7901 96.0127C24.7901 96.1148 24.7901 96.2 24.7901 96.2681C22.2821 98.4472 20.8326 99.6559 20.4418 99.8943C18.2594 101.46 16.1423 102.243 14.0903 102.243C13.2434 101.801 11.9731 101.58 10.2794 101.58C9.2371 101.58 8.61823 101.716 8.4228 101.988C8.35766 102.124 8.25994 102.312 8.12965 102.55C8.03194 102.822 7.91794 103.163 7.78765 103.571V106.176C7.75508 107.606 7.88537 108.781 8.17851 109.7C8.47166 110.517 8.82995 111.045 9.25338 111.283C9.48138 111.386 9.6931 111.471 9.88853 111.539C10.1165 111.641 10.3445 111.726 10.5725 111.794ZM9.05795 96.9831C10.8494 99.3665 13.2108 100.149 16.1423 99.3325C16.5657 99.1963 16.9729 99.0601 17.3637 98.9239C17.7546 98.7536 18.1292 98.5493 18.4875 98.311C19.3669 97.6981 20.0672 96.8128 20.5883 95.6552C21.1421 94.4634 21.5003 93.1696 21.6632 91.7736C21.8261 90.3776 21.7935 89.0156 21.5655 87.6877C21.3375 86.3598 20.8978 85.2362 20.2463 84.3168C20.1812 84.2147 20.0998 84.1125 20.002 84.0104C19.9043 83.9082 19.8229 83.8231 19.7578 83.755L19.1226 83.1421C16.9403 81.8142 14.6928 81.6951 12.3802 82.7846C10.2956 83.8061 9.00909 85.4745 8.52052 87.7898C8.48794 87.892 8.47166 87.9941 8.47166 88.0963C8.47166 88.1984 8.45537 88.3006 8.4228 88.4027C8.4228 88.5389 8.40651 88.7432 8.37394 89.0156C8.37394 89.288 8.35766 89.6455 8.32509 90.0881C8.09708 93.0845 8.12965 94.9231 8.4228 95.6041C8.48794 96.4894 8.69966 96.949 9.05795 96.9831Z" fill="url(#paint6_linear_4329_1115)"/>
<path d="M12.1848 114.593H12.6848V114.093C12.6848 113.261 12.5155 112.54 12.0575 112.061C11.6935 111.681 11.2342 111.433 10.7 111.31C10.499 111.25 10.2967 111.174 10.0929 111.083L10.0733 111.074L10.053 111.067C9.87992 111.006 9.68942 110.93 9.48104 110.838C9.2231 110.683 8.92627 110.301 8.6521 109.54C8.38364 108.693 8.25569 107.582 8.28744 106.188L8.28757 106.176V103.649C8.40115 103.295 8.50099 102.997 8.58723 102.755C8.69024 102.566 8.77464 102.405 8.83902 102.275C8.86761 102.257 8.94989 102.212 9.14091 102.17C9.3998 102.113 9.77437 102.08 10.2794 102.08C11.9458 102.08 13.119 102.3 13.8586 102.687L13.9675 102.743H14.0903C16.2705 102.743 18.483 101.912 20.7194 100.31C20.9602 100.159 21.4459 99.7735 22.1422 99.1929C22.8708 98.5853 23.8631 97.7358 25.118 96.6454L25.2901 96.4959V96.268V96.2668V96.2656V96.2643V96.2631V96.2619V96.2607V96.2595V96.2583V96.257V96.2558V96.2546V96.2533V96.2521V96.2509V96.2496V96.2484V96.2471V96.2458V96.2446V96.2433V96.242V96.2408V96.2395V96.2382V96.2369V96.2356V96.2344V96.2331V96.2318V96.2305V96.2292V96.2279V96.2265V96.2252V96.2239V96.2226V96.2213V96.2199V96.2186V96.2173V96.2159V96.2146V96.2132V96.2119V96.2105V96.2092V96.2078V96.2065V96.2051V96.2037V96.2023V96.201V96.1996V96.1982V96.1968V96.1954V96.194V96.1926V96.1912V96.1898V96.1884V96.187V96.1856V96.1842V96.1827V96.1813V96.1799V96.1784V96.177V96.1756V96.1741V96.1727V96.1712V96.1698V96.1683V96.1668V96.1654V96.1639V96.1624V96.161V96.1595V96.158V96.1565V96.155V96.1535V96.152V96.1505V96.149V96.1475V96.146V96.1445V96.143V96.1415V96.1404V96.1389V96.1374V96.1359V96.1348V96.1333V96.1317V96.1302V96.1286V96.1271V96.1255V96.124V96.1229V96.1214V96.1203V96.1187V96.1172V96.1161V96.1145V96.1129V96.1114V96.1103V96.1092V96.1076V96.106V96.105V96.1039V96.1028V96.1012V96.1001V96.0985V96.0974V96.0958V96.0947V96.0936V96.092V96.0909V96.0898V96.0887C25.3189 95.9919 25.3469 95.8853 25.3741 95.7714L25.3753 95.7661C25.5383 95.0506 25.6689 94.4705 25.7669 94.0263C25.8637 93.588 25.9252 93.2314 25.9252 92.9992C25.9252 89.5738 25.0543 86.6089 23.2922 84.1292L23.2868 84.1216L23.281 84.1141C20.4068 80.3759 17.0964 78.7106 13.3732 79.329L13.3507 79.3327L13.3287 79.3385L12.9378 79.4407C12.8171 79.4722 12.6788 79.5044 12.5222 79.5371L12.5185 79.5379C10.8935 79.8905 9.39397 79.8289 8.00783 79.3688C7.62147 79.1195 7.17789 78.9101 6.68179 78.7372L6.66681 78.732L6.65153 78.7277C5.51666 78.4114 3.92386 78.6642 1.95555 79.3501L1.88632 79.3742L1.82693 79.4172C1.31028 79.7911 0.98621 80.2875 0.938155 80.8994C0.900792 81.2436 0.9357 81.6148 1.16545 81.9065C1.39397 82.1965 1.72843 82.3011 2.05541 82.313C2.15659 82.3417 2.33882 82.416 2.62133 82.5637L2.67162 82.59L2.72652 82.6043C2.84513 82.6353 2.89966 82.6581 2.91448 82.6658L2.94696 82.6828L2.98156 82.6949C3.06471 82.7238 3.12196 82.7487 3.15877 82.768L3.17322 82.7755L3.18814 82.7821C3.53104 82.9338 3.7639 83.1385 3.91561 83.3886C4.06932 83.642 4.16068 83.9768 4.16068 84.4189V106.84C4.16068 107.692 4.10846 108.368 4.0108 108.878C3.91061 109.402 3.77349 109.691 3.65171 109.828L3.61751 109.866L3.59188 109.911C3.14748 110.685 2.80736 111.342 2.5769 111.877C2.35445 112.394 2.20637 112.859 2.20637 113.224V113.252L2.2095 113.28C2.27419 113.855 2.73185 114.179 3.22868 114.349C3.73054 114.52 4.41501 114.593 5.24697 114.593H12.1848ZM9.45756 96.6826L9.32493 96.5061L9.1326 96.4878C9.12215 96.4747 9.10562 96.4494 9.08451 96.4035C9.0158 96.2544 8.95235 95.9883 8.92137 95.5673L8.9152 95.4835L8.88198 95.4063C8.77876 95.1665 8.69471 94.6285 8.67835 93.7054C8.66246 92.8083 8.71011 91.617 8.82357 90.126L8.82366 90.1247C8.85552 89.6918 8.87267 89.3308 8.8738 89.0455C8.9002 88.8208 8.91716 88.629 8.92157 88.4773C8.95441 88.3529 8.97158 88.2255 8.97158 88.0962C8.97158 88.0481 8.97911 87.9971 8.9968 87.9416L9.00446 87.9176L9.00966 87.893C9.46692 85.726 10.6555 84.1876 12.5968 83.2352C14.7398 82.2267 16.7934 82.3277 18.8159 83.5409L19.4034 84.1078L19.6407 84.3559C19.7195 84.4383 19.7798 84.515 19.8248 84.5856L19.8313 84.5959L19.8384 84.6058C20.439 85.4534 20.8549 86.5037 21.0727 87.7722C21.2923 89.051 21.3241 90.3649 21.1666 91.7155C21.0095 93.0623 20.6647 94.3042 20.1349 95.4444L20.1324 95.4498C19.6424 96.5384 18.9965 97.3454 18.2059 97.8976C17.8785 98.1151 17.537 98.3018 17.1811 98.4579C16.8027 98.5896 16.4086 98.7214 15.9986 98.8533C14.611 99.2386 13.3947 99.2364 12.33 98.8833C11.2637 98.5297 10.3045 97.8094 9.45756 96.6826ZM9.14524 96.5002C9.14515 96.5006 9.14283 96.4993 9.13854 96.4947C9.14318 96.4974 9.14533 96.4997 9.14524 96.5002Z" stroke="#7987F4" stroke-opacity="0.5"/>
<path d="M147.921 66.4925C146.588 67.8925 145.021 68.5592 143.221 68.4925C142.354 68.4258 141.354 68.3258 140.221 68.1925C139.154 68.1258 137.921 67.9925 136.521 67.7925C133.521 67.3925 131.321 67.1925 129.921 67.1925C129.454 67.1925 128.854 67.1925 128.121 67.1925C127.454 67.1925 126.654 67.1592 125.721 67.0925C123.588 67.0258 121.754 66.9925 120.221 66.9925C118.754 66.9925 117.588 67.0592 116.721 67.1925C115.521 67.2592 114.588 66.5925 113.921 65.1925C113.188 63.4592 113.654 62.3592 115.321 61.8925C119.588 61.8925 122.121 60.4925 122.921 57.6925C123.188 56.6925 123.321 55.3925 123.321 53.7925C123.321 52.5925 123.221 50.8925 123.021 48.6925C122.621 44.6258 122.721 41.4592 123.321 39.1925C123.321 34.1258 121.721 30.8592 118.521 29.3925C118.054 29.1925 117.521 29.0258 116.921 28.8925C116.388 28.6925 115.854 28.5258 115.321 28.3925C113.921 28.3925 113.054 27.9258 112.721 26.9925C112.654 26.7925 112.621 26.4258 112.621 25.8925C113.554 24.8925 114.921 24.3925 116.721 24.3925H119.221C122.154 24.3925 123.854 23.4925 124.321 21.6925C124.521 20.9592 124.621 20.0925 124.621 19.0925V16.3925C124.621 10.5258 127.121 6.39248 132.121 3.99248C132.454 3.85914 132.754 3.72581 133.021 3.59248C133.354 3.45914 133.654 3.32581 133.921 3.19248C142.854 -0.407517 149.954 0.425814 155.221 5.69248C155.954 6.55914 155.754 7.55915 154.621 8.69248C153.288 10.0258 151.654 9.85914 149.721 8.19248C149.521 7.99248 149.321 7.79248 149.121 7.59248C148.921 7.39248 148.754 7.19248 148.621 6.99248C146.621 5.72581 144.088 5.22581 141.021 5.49248C140.354 5.55915 139.754 5.62581 139.221 5.69248C138.688 5.69248 138.254 5.69248 137.921 5.69248C136.254 6.55914 134.521 8.65915 132.721 11.9925C132.588 12.2592 132.521 12.3925 132.521 12.3925V20.4925C132.588 22.9592 133.954 24.2592 136.621 24.3925C137.354 24.3925 138.254 24.3925 139.321 24.3925C140.454 24.3925 141.721 24.4258 143.121 24.4925C145.588 24.5592 147.688 24.5925 149.421 24.5925C151.221 24.5925 152.688 24.5258 153.821 24.3925C155.354 24.1925 156.721 24.8925 157.921 26.4925C158.588 27.4925 158.588 28.1258 157.921 28.3925H147.221C140.288 28.3925 136.121 28.7258 134.721 29.3925C132.788 30.1925 131.688 32.2258 131.421 35.4925C131.354 36.2258 131.288 37.3592 131.221 38.8925C131.221 40.3592 131.221 42.2258 131.221 44.4925C130.354 47.0925 129.921 51.0925 129.921 56.4925C129.921 59.1592 130.754 60.7925 132.421 61.3925C133.554 61.7258 134.954 61.8925 136.621 61.8925C136.954 61.8925 137.788 61.8258 139.121 61.6925C140.521 61.4925 142.454 61.2258 144.921 60.8925C146.454 60.6925 147.688 60.5925 148.621 60.5925L149.921 61.8925C149.921 63.4258 149.254 64.9592 147.921 66.4925Z" fill="url(#paint7_linear_4329_1115)"/>
<path d="M148.291 66.8291L148.283 66.8373C146.859 68.3325 145.157 69.0645 143.203 68.9921L143.193 68.9918L143.183 68.991C142.311 68.924 141.309 68.8238 140.176 68.6907C139.097 68.6227 137.855 68.4881 136.453 68.2878M148.291 66.8291L136.521 67.7925M148.291 66.8291L148.298 66.8206L147.921 66.4925M136.453 68.2878C136.452 68.2877 136.451 68.2876 136.45 68.2875L136.521 67.7925M136.453 68.2878C136.454 68.2879 136.454 68.288 136.455 68.2881L136.521 67.7925M136.453 68.2878C133.457 67.8884 131.285 67.6925 129.921 67.6925H129.918H129.916H129.913H129.91H129.907H129.905H129.902H129.899H129.896H129.894H129.891H129.888H129.885H129.883H129.88H129.877H129.874H129.871H129.869H129.866H129.863H129.86H129.857H129.855H129.852H129.849H129.846H129.843H129.841H129.838H129.835H129.832H129.829H129.826H129.824H129.821H129.818H129.815H129.812H129.809H129.806H129.804H129.801H129.798H129.795H129.792H129.789H129.786H129.783H129.781H129.778H129.775H129.772H129.769H129.766H129.763H129.76H129.757H129.754H129.752H129.749H129.746H129.743H129.74H129.737H129.734H129.731H129.728H129.725H129.722H129.719H129.716H129.713H129.71H129.707H129.704H129.702H129.699H129.696H129.693H129.69H129.687H129.684H129.681H129.678H129.675H129.672H129.669H129.666H129.663H129.66H129.657H129.654H129.651H129.648H129.645H129.642H129.638H129.635H129.632H129.629H129.626H129.623H129.62H129.617H129.614H129.611H129.608H129.605H129.602H129.599H129.596H129.593H129.59H129.586H129.583H129.58H129.577H129.574H129.571H129.568H129.565H129.562H129.559H129.555H129.552H129.549H129.546H129.543H129.54H129.537H129.534H129.53H129.527H129.524H129.521H129.518H129.515H129.512H129.508H129.505H129.502H129.499H129.496H129.493H129.489H129.486H129.483H129.48H129.477H129.473H129.47H129.467H129.464H129.461H129.457H129.454H129.451H129.448H129.445H129.441H129.438H129.435H129.432H129.428H129.425H129.422H129.419H129.415H129.412H129.409H129.406H129.402H129.399H129.396H129.393H129.389H129.386H129.383H129.379H129.376H129.373H129.37H129.366H129.363H129.36H129.356H129.353H129.35H129.347H129.343H129.34H129.337H129.333H129.33H129.327H129.323H129.32H129.317H129.313H129.31H129.307H129.303H129.3H129.296H129.293H129.29H129.286H129.283H129.28H129.276H129.273H129.269H129.266H129.263H129.259H129.256H129.253H129.249H129.246H129.242H129.239H129.235H129.232H129.229H129.225H129.222H129.218H129.215H129.211H129.208H129.205H129.201H129.198H129.194H129.191H129.187H129.184H129.18H129.177H129.174H129.17H129.167H129.163H129.16H129.156H129.153H129.149H129.146H129.142H129.139H129.135H129.132H129.128H129.125H129.121H129.118H129.114H129.111H129.107H129.104H129.1H129.096H129.093H129.089H129.086H129.082H129.079H129.075H129.072H129.068H129.064H129.061H129.057H129.054H129.05H129.047H129.043H129.039H129.036H129.032H129.029H129.025H129.021H129.018H129.014H129.011H129.007H129.003H129H128.996H128.993H128.989H128.985H128.982H128.978H128.974H128.971H128.967H128.963H128.96H128.956H128.953H128.949H128.945H128.942H128.938H128.934H128.931H128.927H128.923H128.919H128.916H128.912H128.908H128.905H128.901H128.897H128.894H128.89H128.886H128.882H128.879H128.875H128.871H128.868H128.864H128.86H128.856H128.853H128.849H128.845H128.841H128.838H128.834H128.83H128.826H128.823H128.819H128.815H128.811H128.807H128.804H128.8H128.796H128.792H128.789H128.785H128.781H128.777H128.773H128.77H128.766H128.762H128.758H128.754H128.75H128.747H128.743H128.739H128.735H128.731H128.727H128.724H128.72H128.716H128.712H128.708H128.704H128.701H128.697H128.693H128.689H128.685H128.681H128.677H128.673H128.67H128.666H128.662H128.658H128.654H128.65H128.646H128.642H128.638H128.634H128.63H128.627H128.623H128.619H128.615H128.611H128.607H128.603H128.599H128.595H128.591H128.587H128.583H128.579H128.575H128.571H128.567H128.563H128.559H128.555H128.551H128.548H128.544H128.54H128.536H128.532H128.528H128.524H128.52H128.516H128.512H128.508H128.504H128.499H128.495H128.491H128.487H128.483H128.479H128.475H128.471H128.467H128.463H128.459H128.455H128.451H128.447H128.443H128.439H128.435H128.431H128.427H128.423H128.419H128.414H128.41H128.406H128.402H128.398H128.394H128.39H128.386H128.382H128.378H128.373H128.369H128.365H128.361H128.357H128.353H128.349H128.345H128.34H128.336H128.332H128.328H128.324H128.32H128.316H128.311H128.307H128.303H128.299H128.295H128.291H128.286H128.282H128.278H128.274H128.27H128.265H128.261H128.257H128.253H128.249H128.244H128.24H128.236H128.232H128.228H128.223H128.219H128.215H128.211H128.206H128.202H128.198H128.194H128.189H128.185H128.181H128.177H128.172H128.168H128.164H128.16H128.155H128.151H128.147H128.143H128.138H128.134H128.13H128.125H128.121C127.441 67.6925 126.632 67.6587 125.696 67.5919M136.521 67.7925C133.521 67.3925 131.321 67.1925 129.921 67.1925H128.121C127.454 67.1925 126.654 67.1592 125.721 67.0925M125.696 67.5919C125.699 67.592 125.702 67.5921 125.705 67.5922L125.721 67.0925M125.696 67.5919C125.692 67.5917 125.689 67.5915 125.685 67.5912L125.721 67.0925M125.696 67.5919C123.57 67.5256 121.745 67.4925 120.221 67.4925C118.765 67.4925 117.628 67.5589 116.797 67.6867L116.773 67.6904L116.749 67.6917C116.041 67.731 115.394 67.5521 114.83 67.1494C114.275 66.7524 113.827 66.1582 113.47 65.4075L113.465 65.3975L113.461 65.3873C113.071 64.4658 112.951 63.6026 113.261 62.8722C113.577 62.128 114.275 61.6662 115.186 61.411L115.252 61.3925H115.321C117.407 61.3925 119.014 61.0491 120.179 60.4049C121.327 59.7703 122.075 58.8302 122.439 57.5594C122.69 56.6182 122.821 55.3675 122.821 53.7925C122.821 52.6155 122.723 50.9338 122.523 48.7395C122.125 44.6886 122.214 41.4746 122.821 39.1285C122.808 34.1994 121.249 31.1958 118.318 29.8496C117.887 29.6652 117.386 29.508 116.813 29.3806L116.778 29.373L116.746 29.3607C116.249 29.1744 115.753 29.0183 115.258 28.8922C114.534 28.8854 113.9 28.7603 113.384 28.4827C112.841 28.1903 112.458 27.7429 112.25 27.1607L112.247 27.1506C112.151 26.8644 112.121 26.4219 112.121 25.8925V25.6954L112.256 25.5513C113.311 24.4207 114.828 23.8925 116.721 23.8925H119.221C120.645 23.8925 121.712 23.6726 122.462 23.2756C123.193 22.8887 123.64 22.3259 123.837 21.567L123.839 21.5609C124.024 20.8815 124.121 20.0612 124.121 19.0925V16.3925C124.121 13.3875 124.762 10.7937 126.068 8.63373C127.376 6.47205 129.33 4.77741 131.905 3.54173L131.92 3.53448L131.935 3.52826C132.258 3.39907 132.545 3.27132 132.798 3.14529L132.816 3.13599L132.835 3.12826C133.158 2.99907 133.445 2.87132 133.698 2.74529L133.716 2.73627L133.734 2.72874C138.253 0.907859 142.347 0.191674 146.004 0.620907C149.671 1.05127 152.865 2.62967 155.575 5.33894L155.589 5.35365L155.603 5.36953C156.055 5.90428 156.245 6.52272 156.111 7.19055C155.984 7.82813 155.574 8.44633 154.975 9.04605C154.219 9.80129 153.335 10.1659 152.345 10.0649C151.385 9.96687 150.399 9.43693 149.395 8.57121L149.381 8.55913L149.368 8.54605L149.068 8.24605L148.768 7.94605C148.577 7.75578 148.41 7.56109 148.268 7.36157C146.398 6.20813 144.012 5.73484 141.068 5.99034C140.405 6.05659 139.811 6.12269 139.283 6.18864L139.252 6.1925H139.221H139.218H139.215H139.212H139.209H139.206H139.202H139.199H139.196H139.193H139.19H139.187H139.184H139.181H139.178H139.174H139.171H139.168H139.165H139.162H139.159H139.156H139.153H139.15H139.147H139.144H139.141H139.138H139.135H139.131H139.128H139.125H139.122H139.119H139.116H139.113H139.11H139.107H139.104H139.101H139.098H139.095H139.092H139.089H139.086H139.083H139.08H139.077H139.074H139.071H139.068H139.065H139.062H139.059H139.056H139.053H139.05H139.047H139.044H139.041H139.038H139.035H139.032H139.029H139.026H139.023H139.02H139.017H139.014H139.011H139.008H139.005H139.002H138.999H138.996H138.993H138.99H138.987H138.984H138.981H138.978H138.976H138.973H138.97H138.967H138.964H138.961H138.958H138.955H138.952H138.949H138.946H138.943H138.94H138.937H138.935H138.932H138.929H138.926H138.923H138.92H138.917H138.914H138.911H138.908H138.906H138.903H138.9H138.897H138.894H138.891H138.888H138.885H138.883H138.88H138.877H138.874H138.871H138.868H138.865H138.863H138.86H138.857H138.854H138.851H138.848H138.846H138.843H138.84H138.837H138.834H138.831H138.829H138.826H138.823H138.82H138.817H138.814H138.812H138.809H138.806H138.803H138.8H138.798H138.795H138.792H138.789H138.786H138.784H138.781H138.778H138.775H138.773H138.77H138.767H138.764H138.761H138.759H138.756H138.753H138.75H138.748H138.745H138.742H138.739H138.737H138.734H138.731H138.728H138.726H138.723H138.72H138.717H138.715H138.712H138.709H138.707H138.704H138.701H138.698H138.696H138.693H138.69H138.688H138.685H138.682H138.679H138.677H138.674H138.671H138.669H138.666H138.663H138.661H138.658H138.655H138.653H138.65H138.647H138.645H138.642H138.639H138.637H138.634H138.631H138.629H138.626H138.623H138.621H138.618H138.615H138.613H138.61H138.607H138.605H138.602H138.6H138.597H138.594H138.592H138.589H138.586H138.584H138.581H138.579H138.576H138.573H138.571H138.568H138.566H138.563H138.56H138.558H138.555H138.553H138.55H138.547H138.545H138.542H138.54H138.537H138.534H138.532H138.529H138.527H138.524H138.522H138.519H138.517H138.514H138.511H138.509H138.506H138.504H138.501H138.499H138.496H138.494H138.491H138.489H138.486H138.483H138.481H138.478H138.476H138.473H138.471H138.468H138.466H138.463H138.461H138.458H138.456H138.453H138.451H138.448H138.446H138.443H138.441H138.438H138.436H138.433H138.431H138.428H138.426H138.423H138.421H138.419H138.416H138.414H138.411H138.409H138.406H138.404H138.401H138.399H138.396H138.394H138.392H138.389H138.387H138.384H138.382H138.379H138.377H138.374H138.372H138.37H138.367H138.365H138.362H138.36H138.358H138.355H138.353H138.35H138.348H138.345H138.343H138.341H138.338H138.336H138.334H138.331H138.329H138.326H138.324H138.322H138.319H138.317H138.314H138.312H138.31H138.307H138.305H138.303H138.3H138.298H138.296H138.293H138.291H138.289H138.286H138.284H138.282H138.279H138.277H138.275H138.272H138.27H138.268H138.265H138.263H138.261H138.258H138.256H138.254H138.251H138.249H138.247H138.244H138.242H138.24H138.238H138.235H138.233H138.231H138.228H138.226H138.224H138.222H138.219H138.217H138.215H138.212H138.21H138.208H138.206H138.203H138.201H138.199H138.197H138.194H138.192H138.19H138.188H138.185H138.183H138.181H138.179H138.176H138.174H138.172H138.17H138.168H138.165H138.163H138.161H138.159H138.156H138.154H138.152H138.15H138.148H138.145H138.143H138.141H138.139H138.137H138.134H138.132H138.13H138.128H138.126H138.124H138.121H138.119H138.117H138.115H138.113H138.111H138.108H138.106H138.104H138.102H138.1H138.098H138.095H138.093H138.091H138.089H138.087H138.085H138.083H138.08H138.078H138.076H138.074H138.072H138.07H138.068H138.066H138.063H138.061H138.059H138.057H138.055H138.053H138.051H138.049H138.047C136.551 7.01998 134.915 8.98428 133.165 12.2232L133.021 12.5105V20.4856C133.053 21.6256 133.381 22.4229 133.941 22.9552C134.506 23.4925 135.377 23.8278 136.634 23.8925H136.638H136.643H136.647H136.651H136.656H136.66H136.664H136.669H136.673H136.677H136.682H136.686H136.69H136.695H136.699H136.703H136.708H136.712H136.717H136.721H136.725H136.73H136.734H136.739H136.743H136.747H136.752H136.756H136.761H136.765H136.769H136.774H136.778H136.783H136.787H136.792H136.796H136.801H136.805H136.809H136.814H136.818H136.823H136.827H136.832H136.836H136.841H136.845H136.85H136.854H136.859H136.863H136.868H136.872H136.877H136.881H136.886H136.89H136.895H136.899H136.904H136.908H136.913H136.918H136.922H136.927H136.931H136.936H136.94H136.945H136.95H136.954H136.959H136.963H136.968H136.972H136.977H136.982H136.986H136.991H136.996H137H137.005H137.009H137.014H137.019H137.023H137.028H137.033H137.037H137.042H137.047H137.051H137.056H137.061H137.065H137.07H137.075H137.079H137.084H137.089H137.093H137.098H137.103H137.107H137.112H137.117H137.122H137.126H137.131H137.136H137.14H137.145H137.15H137.155H137.159H137.164H137.169H137.174H137.178H137.183H137.188H137.193H137.198H137.202H137.207H137.212H137.217H137.222H137.226H137.231H137.236H137.241H137.246H137.25H137.255H137.26H137.265H137.27H137.275H137.279H137.284H137.289H137.294H137.299H137.304H137.309H137.313H137.318H137.323H137.328H137.333H137.338H137.343H137.348H137.353H137.357H137.362H137.367H137.372H137.377H137.382H137.387H137.392H137.397H137.402H137.407H137.412H137.417H137.422H137.427H137.431H137.436H137.441H137.446H137.451H137.456H137.461H137.466H137.471H137.476H137.481H137.486H137.491H137.496H137.501H137.506H137.511H137.516H137.521H137.527H137.532H137.537H137.542H137.547H137.552H137.557H137.562H137.567H137.572H137.577H137.582H137.587H137.592H137.597H137.602H137.608H137.613H137.618H137.623H137.628H137.633H137.638H137.643H137.648H137.654H137.659H137.664H137.669H137.674H137.679H137.684H137.69H137.695H137.7H137.705H137.71H137.715H137.721H137.726H137.731H137.736H137.741H137.747H137.752H137.757H137.762H137.767H137.773H137.778H137.783H137.788H137.794H137.799H137.804H137.809H137.815H137.82H137.825H137.83H137.836H137.841H137.846H137.851H137.857H137.862H137.867H137.873H137.878H137.883H137.888H137.894H137.899H137.904H137.91H137.915H137.92H137.926H137.931H137.936H137.942H137.947H137.952H137.958H137.963H137.968H137.974H137.979H137.985H137.99H137.995H138.001H138.006H138.011H138.017H138.022H138.028H138.033H138.038H138.044H138.049H138.055H138.06H138.066H138.071H138.076H138.082H138.087H138.093H138.098H138.104H138.109H138.115H138.12H138.125H138.131H138.136H138.142H138.147H138.153H138.158H138.164H138.169H138.175H138.18H138.186H138.191H138.197H138.202H138.208H138.214H138.219H138.225H138.23H138.236H138.241H138.247H138.252H138.258H138.263H138.269H138.275H138.28H138.286H138.291H138.297H138.303H138.308H138.314H138.319H138.325H138.331H138.336H138.342H138.347H138.353H138.359H138.364H138.37H138.376H138.381H138.387H138.393H138.398H138.404H138.41H138.415H138.421H138.427H138.432H138.438H138.444H138.449H138.455H138.461H138.466H138.472H138.478H138.484H138.489H138.495H138.501H138.506H138.512H138.518H138.524H138.529H138.535H138.541H138.547H138.552H138.558H138.564H138.57H138.575H138.581H138.587H138.593H138.599H138.604H138.61H138.616H138.622H138.628H138.633H138.639H138.645H138.651H138.657H138.663H138.668H138.674H138.68H138.686H138.692H138.698H138.703H138.709H138.715H138.721H138.727H138.733H138.739H138.745H138.75H138.756H138.762H138.768H138.774H138.78H138.786H138.792H138.798H138.804H138.81H138.816H138.821H138.827H138.833H138.839H138.845H138.851H138.857H138.863H138.869H138.875H138.881H138.887H138.893H138.899H138.905H138.911H138.917H138.923H138.929H138.935H138.941H138.947H138.953H138.959H138.965H138.971H138.977H138.983H138.989H138.995H139.001H139.007H139.013H139.019H139.026H139.032H139.038H139.044H139.05H139.056H139.062H139.068H139.074H139.08H139.086H139.092H139.099H139.105H139.111H139.117H139.123H139.129H139.135H139.141H139.148H139.154H139.16H139.166H139.172H139.178H139.185H139.191H139.197H139.203H139.209H139.215H139.222H139.228H139.234H139.24H139.246H139.253H139.259H139.265H139.271H139.277H139.284H139.29H139.296H139.302H139.309H139.315H139.321C140.463 23.8925 141.736 23.926 143.14 23.9928C145.601 24.0593 147.695 24.0925 149.421 24.0925C151.21 24.0925 152.654 24.0262 153.76 23.8963C155.524 23.6674 157.05 24.4981 158.321 26.1925L158.329 26.2036L158.337 26.2151C158.684 26.7348 158.921 27.2471 158.921 27.7175C158.921 27.9683 158.853 28.2117 158.698 28.4214C158.546 28.6267 158.336 28.7652 158.107 28.8567L158.017 28.8925H157.921H147.221C143.76 28.8925 141 28.9758 138.936 29.1409C137.904 29.2235 137.052 29.326 136.378 29.4471C135.697 29.5696 135.226 29.706 134.936 29.8439L134.924 29.8495L134.912 29.8545C133.238 30.5472 132.18 32.3379 131.919 35.5332V35.5378C131.854 36.257 131.788 37.3769 131.721 38.9034L125.721 67.0925M131.695 44.6506L131.721 44.5736V44.4925V44.4792V44.4659V44.4527V44.4394V44.4262V44.413V44.3997V44.3865V44.3733V44.3601V44.347V44.3338V44.3206V44.3074V44.2943V44.2812V44.268V44.2549V44.2418V44.2287V44.2156V44.2025V44.1894V44.1764V44.1633V44.1503V44.1372V44.1242V44.1112V44.0982V44.0852V44.0722V44.0592V44.0462V44.0333V44.0203V44.0074V43.9944V43.9815V43.9686V43.9557V43.9428V43.9299V43.917V43.9041V43.8912V43.8784V43.8655V43.8527V43.8399V43.8271V43.8142V43.8014V43.7887V43.7759V43.7631V43.7503V43.7376V43.7248V43.7121V43.6994V43.6866V43.6739V43.6612V43.6485V43.6359V43.6232V43.6105V43.5979V43.5852V43.5726V43.56V43.5474V43.5347V43.5221V43.5096V43.497V43.4844V43.4718V43.4593V43.4467V43.4342V43.4217V43.4092V43.3967V43.3842V43.3717V43.3592V43.3467V43.3343V43.3218V43.3094V43.2969V43.2845V43.2721V43.2597V43.2473V43.2349V43.2225V43.2101V43.1978V43.1854V43.1731V43.1608V43.1484V43.1361V43.1238V43.1115V43.0992V43.0869V43.0747V43.0624V43.0502M144.856 60.3967L144.854 60.397L144.921 60.8925L144.856 60.3967Z" stroke="#7987F4" stroke-opacity="0.5"/>
<path d="M110.174 66.5927C109.241 66.6594 107.841 66.6261 105.974 66.4927C104.174 66.4261 101.941 66.2261 99.2739 65.8927C95.1405 65.4927 91.7739 65.7261 89.1739 66.5927C87.9072 66.5927 87.0739 65.9594 86.6739 64.6927C86.2072 63.2927 86.8739 62.3261 88.6739 61.7927C89.0072 61.7261 89.3072 61.6927 89.5739 61.6927C89.9072 61.6261 90.2072 61.5927 90.4739 61.5927C94.3405 60.5927 96.4072 57.7927 96.6739 53.1927V14.1927C96.6739 10.9927 96.1405 9.15943 95.0739 8.69276C94.2072 8.42609 92.2405 8.59276 89.1739 9.19276C87.0405 10.3261 85.4072 9.99276 84.2739 8.19276C83.6072 6.99276 83.5739 6.09276 84.1739 5.49276C84.5739 5.49276 86.3072 5.1261 89.3739 4.39276C89.6405 4.32609 89.8405 4.29276 89.9739 4.29276C90.1739 4.22609 90.3405 4.19276 90.4739 4.19276C91.0072 4.05943 91.6405 3.9261 92.3739 3.79276C93.1072 3.65943 93.9405 3.49276 94.8739 3.29276C98.8072 2.35943 101.207 2.15943 102.074 2.69276C103.341 3.42609 104.007 5.85943 104.074 9.99276V16.6927C104.074 28.2927 103.674 37.4594 102.874 44.1927V51.5927C102.874 55.5261 103.307 57.9261 104.174 58.7927C104.974 59.4594 106.841 60.0594 109.774 60.5927C110.174 60.6594 110.507 60.7927 110.774 60.9927C111.107 61.1261 111.407 61.2927 111.674 61.4927C111.807 61.4261 111.974 61.7261 112.174 62.3927C112.441 62.9927 112.574 63.5594 112.574 64.0927C112.574 64.5594 112.341 65.0927 111.874 65.6927C111.474 66.2927 110.907 66.5927 110.174 66.5927Z" fill="url(#paint8_linear_4329_1115)"/>
<path d="M92.2844 3.30034C93.0101 3.16841 93.8364 3.00321 94.7638 2.80452C96.7384 2.33614 98.3475 2.04691 99.5824 1.94401C100.2 1.89251 100.738 1.88649 101.187 1.93236C101.627 1.97723 102.022 2.07541 102.33 2.26283C103.133 2.73046 103.662 3.67996 104.006 4.93516C104.355 6.20968 104.54 7.89863 104.574 9.98422V9.99228V16.6923C104.574 28.2835 104.175 37.4628 103.374 44.2219V51.5923C103.374 53.5449 103.482 55.095 103.691 56.2535C103.901 57.4166 104.199 58.0978 104.512 58.423C104.84 58.6893 105.427 58.9771 106.327 59.2663C107.231 59.5569 108.406 59.8354 109.86 60.0998C110.296 60.1729 110.688 60.319 111.019 60.5521C111.315 60.6752 111.591 60.8239 111.844 60.9989C111.94 61.0221 112.024 61.0675 112.087 61.1164C112.205 61.2078 112.284 61.3304 112.336 61.4245C112.443 61.6179 112.545 61.8916 112.644 62.2185C112.924 62.8579 113.074 63.4841 113.074 64.0923C113.074 64.7163 112.768 65.353 112.279 65.9852C111.789 66.7119 111.075 67.0871 110.192 67.0923C109.224 67.1598 107.803 67.1241 105.947 66.9917C104.13 66.924 101.886 66.7226 99.2189 66.3893C95.1259 65.9939 91.839 66.231 89.332 67.0667L89.255 67.0923H89.1739C88.4549 67.0923 87.8171 66.9112 87.2963 66.5154C86.7786 66.1219 86.4211 65.5502 86.1983 64.8467C85.9308 64.0414 85.9679 63.2779 86.4123 62.6335C86.8393 62.0143 87.5836 61.5939 88.5318 61.3129L88.5536 61.3065L88.5758 61.302C88.9137 61.2345 89.2304 61.1966 89.5235 61.1927C89.8373 61.1322 90.1326 61.0977 90.4073 61.0929C92.2175 60.6135 93.5765 59.7259 94.5216 58.4454C95.4794 57.1478 96.0428 55.4048 96.1739 53.1777V14.1923C96.1739 12.6123 96.0413 11.4079 95.7938 10.557C95.5489 9.71523 95.2212 9.31551 94.8986 9.16184C94.558 9.06551 93.9412 9.03498 92.9911 9.1155C92.0481 9.19541 90.8333 9.37882 89.3416 9.66899C88.242 10.2409 87.2015 10.4766 86.2489 10.2822C85.264 10.0812 84.4689 9.4405 83.8508 8.45869L83.8435 8.44709L83.8368 8.4351C83.4835 7.79915 83.2699 7.19494 83.2492 6.63579C83.2278 6.05643 83.4154 5.54362 83.8203 5.13873L83.9668 4.99228H84.1739C84.2253 4.99228 84.3687 4.97725 84.6392 4.93076C84.8969 4.88646 85.2399 4.81917 85.6704 4.72811C86.5303 4.54621 87.7245 4.27259 89.2551 3.90658C89.4893 3.84813 89.7057 3.80579 89.8871 3.79498C90.0637 3.7403 90.2389 3.70238 90.4057 3.69402C90.941 3.56179 91.5677 3.43065 92.2844 3.30034ZM92.2844 3.30034L92.3737 3.79137" stroke="#7987F4" stroke-opacity="0.5"/>
<path d="M8.325 66.3923C7.65833 67.059 6.125 67.159 3.725 66.6923C3.45833 66.6256 3.225 66.5923 3.025 66.5923C2.825 66.5256 2.65833 66.4923 2.525 66.4923C1.59167 65.4256 1.125 63.9923 1.125 62.1923C1.125 61.3256 1.325 60.859 1.725 60.7923C1.85833 60.7256 2.125 60.6923 2.525 60.6923C6.45833 60.559 8.35833 58.1256 8.225 53.3923C8.225 37.3256 8.625 25.759 9.425 18.6923C9.35833 14.6923 7.25833 11.1256 3.125 7.99232C2.99167 7.85898 2.825 7.72565 2.625 7.59232C2.425 7.45899 2.25833 7.35899 2.125 7.29232C1.125 7.42565 0.791667 6.99232 1.125 5.99232C1.25833 5.72566 1.39167 5.45899 1.525 5.19232C1.65833 4.92565 1.85833 4.65899 2.125 4.39232C2.25833 3.45899 3.225 2.99232 5.025 2.99232C6.15833 2.92565 9.225 2.95899 14.225 3.09232C19.225 3.15898 26.1583 3.25898 35.025 3.39232C40.7583 3.52565 45.625 3.52565 49.625 3.39232C53.1583 3.25898 55.325 4.05898 56.125 5.79232C56.5917 6.79232 56.825 8.35898 56.825 10.4923C56.825 11.0923 56.825 11.7923 56.825 12.5923C56.825 13.3923 56.8583 14.3256 56.925 15.3923V17.6923C56.925 21.4923 56.0583 23.559 54.325 23.8923C53.725 23.8923 53.1583 23.759 52.625 23.4923C51.225 23.559 50.625 22.759 50.825 21.0923C51.025 19.959 51.125 19.359 51.125 19.2923C49.925 14.759 47.425 11.7256 43.625 10.1923C43.1583 10.059 42.6917 9.92565 42.225 9.79232C41.825 9.59232 41.3917 9.45899 40.925 9.39232C38.4583 8.59232 34.125 8.19232 27.925 8.19232H24.825C21.5583 7.99232 19.1917 8.55899 17.725 9.89232C17.4583 10.159 17.225 10.3923 17.025 10.5923C16.825 10.7923 16.6583 11.0256 16.525 11.2923C15.1917 16.0923 15.225 21.4256 16.625 27.2923C18.1583 29.8256 21.125 31.1256 25.525 31.1923H26.825C28.6917 32.1923 30.3583 31.259 31.825 28.3923C31.9583 28.1923 32.0583 27.9923 32.125 27.7923C32.2583 27.5256 32.3583 27.259 32.425 26.9923C32.425 25.9256 33.0583 25.4256 34.325 25.4923C35.6583 25.959 36.4917 26.859 36.825 28.1923C37.825 31.1923 38.325 35.5256 38.325 41.1923C37.925 41.5923 37.3917 42.659 36.725 44.3923C36.325 45.1256 35.925 45.559 35.525 45.6923C33.725 46.559 32.3917 46.059 31.525 44.1923C31.325 43.659 31.225 43.1923 31.225 42.7923C30.4917 39.459 28.5583 37.8923 25.425 38.0923C25.1583 38.0923 24.7583 38.1256 24.225 38.1923C23.7583 38.259 23.1917 38.359 22.525 38.4923C21.8583 38.559 21.2917 38.6256 20.825 38.6923C20.3583 38.759 19.9583 38.8256 19.625 38.8923C16.825 38.8923 15.425 40.2256 15.425 42.8923V43.0923C14.825 50.4256 14.7917 54.9923 15.325 56.7923C16.0583 58.7923 17.825 60.0923 20.625 60.6923C22.225 60.959 25.2917 61.259 29.825 61.5923C30.8917 61.5923 34.2583 61.4923 39.925 61.2923C45.2583 62.359 48.9917 61.8923 51.125 59.8923C52.6583 58.359 53.6917 55.859 54.225 52.3923H55.525C55.9917 52.3923 56.3583 52.5256 56.625 52.7923C56.8917 52.9923 57.025 53.2256 57.025 53.4923L57.125 53.8923C58.125 54.759 58.625 56.6256 58.625 59.4923C58.625 62.8923 57.1583 65.159 54.225 66.2923C53.2917 66.6256 52.3583 66.8256 51.425 66.8923C50.1583 66.8923 46.2583 66.5923 39.725 65.9923C38.8583 65.9256 38.0917 65.8923 37.425 65.8923C36.7583 65.8256 36.1583 65.7923 35.625 65.7923C35.3583 65.7923 34.8583 65.7923 34.125 65.7923C33.3917 65.7923 32.3917 65.759 31.125 65.6923C18.725 65.359 11.125 65.5923 8.325 66.3923Z" fill="url(#paint9_linear_4329_1115)"/>
<path d="M39.725 65.9923L39.6793 66.4902C46.2003 67.0891 50.1294 67.3923 51.425 67.3923H51.4428L51.4606 67.391C52.4418 67.321 53.4196 67.1109 54.3932 66.7632L54.4052 66.7587C55.9535 66.1605 57.1451 65.2498 57.9448 64.0139C58.7425 62.781 59.125 61.2638 59.125 59.4923C59.125 58.0342 58.9983 56.8035 58.733 55.8129C58.4866 54.8929 58.1112 54.1459 57.5737 53.6256L57.5232 53.4236C57.5011 53.0045 57.2777 52.6663 56.953 52.4137C56.5744 52.0499 56.0784 51.8923 55.525 51.8923H54.225H53.796L53.7308 52.3163C53.2052 55.733 52.1986 58.108 50.7771 59.5331C48.8315 61.3514 45.3219 61.8618 40.0231 60.802L39.9658 60.7905L39.9074 60.7926C34.268 60.9916 30.9187 61.0912 29.8432 61.0923C25.3283 60.7601 22.2937 60.4625 20.7186 60.201C18.0363 59.6238 16.457 58.4098 15.8 56.6352C15.5596 55.8106 15.4334 54.2915 15.45 52.0209C15.4665 49.7551 15.6238 46.7939 15.9233 43.1331L15.925 43.1127V43.0923V42.8923C15.925 41.6424 16.2519 40.7953 16.8198 40.2544C17.3924 39.7091 18.2961 39.3923 19.625 39.3923H19.6745L19.7231 39.3826C20.0446 39.3183 20.435 39.2531 20.8957 39.1873C21.3532 39.1219 21.9124 39.056 22.5748 38.9898L22.5991 38.9874L22.6231 38.9826C23.2821 38.8508 23.8377 38.7528 24.2914 38.6879C24.8181 38.6221 25.1914 38.5923 25.425 38.5923H25.4409L25.4569 38.5913C26.9323 38.4971 28.0648 38.8207 28.9102 39.5058C29.7523 40.1881 30.3723 41.2799 30.7256 42.8498C30.7346 43.314 30.8525 43.8229 31.0568 44.3679L31.0635 44.3856L31.0715 44.4029C31.5355 45.4022 32.1643 46.1223 32.9994 46.4355C33.8308 46.7472 34.7528 46.6134 35.7157 46.1554C36.2936 45.9474 36.7622 45.3683 37.1639 44.6317L37.1798 44.6027L37.1917 44.5718C37.522 43.7129 37.8155 43.0293 38.0722 42.5159C38.3354 41.9895 38.5392 41.6852 38.6786 41.5459L38.825 41.3994V41.1923C38.825 35.5184 38.3267 31.1275 37.3053 28.0521C36.9265 26.5604 35.9708 25.5386 34.4902 25.0204L34.4227 24.9968L34.3513 24.993C33.6627 24.9567 33.0437 25.0668 32.5902 25.4249C32.1338 25.7852 31.9389 26.3198 31.9257 26.9257C31.8688 27.1365 31.7867 27.3508 31.6778 27.5687L31.6619 27.6005L31.6507 27.6342C31.5998 27.7866 31.521 27.9469 31.409 28.115L31.393 28.1389L31.3799 28.1646C30.6639 29.5639 29.9372 30.4104 29.2307 30.806C28.5645 31.1791 27.8634 31.1814 27.0611 30.7516L26.9505 30.6923H26.825H25.5288C21.254 30.6268 18.5104 29.3793 17.093 27.099C15.7314 21.348 15.7064 16.1442 16.9933 11.4746C17.1 11.2711 17.2286 11.0958 17.3786 10.9459M39.725 65.9923L39.6867 66.4908C38.8292 66.4249 38.0757 66.3923 37.425 66.3923H37.4001L37.3753 66.3898C36.7211 66.3244 36.1381 66.2923 35.625 66.2923H35.6234H35.6219H35.6203H35.6187H35.6171H35.6155H35.6139H35.6123H35.6107H35.6091H35.6075H35.6059H35.6042H35.6026H35.601H35.5993H35.5977H35.596H35.5943H35.5927H35.591H35.5893H35.5877H35.586H35.5843H35.5826H35.5809H35.5792H35.5774H35.5757H35.574H35.5723H35.5705H35.5688H35.567H35.5653H35.5635H35.5618H35.56H35.5582H35.5564H35.5547H35.5529H35.5511H35.5493H35.5475H35.5457H35.5438H35.542H35.5402H35.5384H35.5365H35.5347H35.5328H35.531H35.5291H35.5273H35.5254H35.5235H35.5216H35.5198H35.5179H35.516H35.5141H35.5122H35.5102H35.5083H35.5064H35.5045H35.5025H35.5006H35.4987H35.4967H35.4948H35.4928H35.4908H35.4889H35.4869H35.4849H35.4829H35.4809H35.4789H35.4769H35.4749H35.4729H35.4709H35.4689H35.4668H35.4648H35.4627H35.4607H35.4586H35.4566H35.4545H35.4525H35.4504H35.4483H35.4462H35.4441H35.442H35.4399H35.4378H35.4357H35.4336H35.4315H35.4294H35.4272H35.4251H35.423H35.4208H35.4187H35.4165H35.4143H35.4122H35.41H35.4078H35.4056H35.4034H35.4012H35.399H35.3968H35.3946H35.3924H35.3902H35.388H35.3857H35.3835H35.3812H35.379H35.3767H35.3745H35.3722H35.37H35.3677H35.3654H35.3631H35.3608H35.3585H35.3562H35.3539H35.3516H35.3493H35.347H35.3446H35.3423H35.34H35.3376H35.3353H35.3329H35.3305H35.3282H35.3258H35.3234H35.321H35.3187H35.3163H35.3139H35.3115H35.3091H35.3066H35.3042H35.3018H35.2994H35.2969H35.2945H35.292H35.2896H35.2871H35.2847H35.2822H35.2797H35.2773H35.2748H35.2723H35.2698H35.2673H35.2648H35.2623H35.2598H35.2572H35.2547H35.2522H35.2496H35.2471H35.2445H35.242H35.2394H35.2369H35.2343H35.2317H35.2291H35.2266H35.224H35.2214H35.2188H35.2162H35.2136H35.2109H35.2083H35.2057H35.2031H35.2004H35.1978H35.1951H35.1925H35.1898H35.1871H35.1845H35.1818H35.1791H35.1764H35.1737H35.171H35.1683H35.1656H35.1629H35.1602H35.1575H35.1547H35.152H35.1493H35.1465H35.1438H35.141H35.1383H35.1355H35.1327H35.1299H35.1272H35.1244H35.1216H35.1188H35.116H35.1132H35.1103H35.1075H35.1047H35.1019H35.099H35.0962H35.0933H35.0905H35.0876H35.0848H35.0819H35.079H35.0762H35.0733H35.0704H35.0675H35.0646H35.0617H35.0588H35.0558H35.0529H35.05H35.0471H35.0441H35.0412H35.0382H35.0353H35.0323H35.0294H35.0264H35.0234H35.0204H35.0175H35.0145H35.0115H35.0085H35.0055H35.0024H34.9994H34.9964H34.9934H34.9903H34.9873H34.9843H34.9812H34.9781H34.9751H34.972H34.969H34.9659H34.9628H34.9597H34.9566H34.9535H34.9504H34.9473H34.9442H34.9411H34.9379H34.9348H34.9317H34.9285H34.9254H34.9222H34.9191H34.9159H34.9128H34.9096H34.9064H34.9032H34.9H34.8968H34.8936H34.8904H34.8872H34.884H34.8808H34.8776H34.8743H34.8711H34.8679H34.8646H34.8614H34.8581H34.8548H34.8516H34.8483H34.845H34.8417H34.8384H34.8351H34.8318H34.8285H34.8252H34.8219H34.8186H34.8153H34.8119H34.8086H34.8052H34.8019H34.7985H34.7952H34.7918H34.7884H34.7851H34.7817H34.7783H34.7749H34.7715H34.7681H34.7647H34.7613H34.7579H34.7544H34.751H34.7476H34.7441H34.7407H34.7372H34.7338H34.7303H34.7269H34.7234H34.7199H34.7164H34.7129H34.7094H34.706H34.7024H34.6989H34.6954H34.6919H34.6884H34.6848H34.6813H34.6778H34.6742H34.6707H34.6671H34.6636H34.66H34.6564H34.6528H34.6493H34.6457H34.6421H34.6385H34.6349H34.6312H34.6276H34.624H34.6204H34.6168H34.6131H34.6095H34.6058H34.6022H34.5985H34.5948H34.5912H34.5875H34.5838H34.5801H34.5765H34.5728H34.5691H34.5653H34.5616H34.5579H34.5542H34.5505H34.5467H34.543H34.5392H34.5355H34.5317H34.528H34.5242H34.5204H34.5167H34.5129H34.5091H34.5053H34.5015H34.4977H34.4939H34.4901H34.4863H34.4824H34.4786H34.4748H34.4709H34.4671H34.4632H34.4594H34.4555H34.4517H34.4478H34.4439H34.44H34.4361H34.4322H34.4283H34.4244H34.4205H34.4166H34.4127H34.4088H34.4048H34.4009H34.397H34.393H34.3891H34.3851H34.3811H34.3772H34.3732H34.3692H34.3652H34.3612H34.3573H34.3533H34.3492H34.3452H34.3412H34.3372H34.3332H34.3291H34.3251H34.3211H34.317H34.313H34.3089H34.3048H34.3008H34.2967H34.2926H34.2885H34.2844H34.2803H34.2762H34.2721H34.268H34.2639H34.2598H34.2556H34.2515H34.2474H34.2432H34.2391H34.2349H34.2308H34.2266H34.2224H34.2182H34.2141H34.2099H34.2057H34.2015H34.1973H34.1931H34.1889H34.1846H34.1804H34.1762H34.1719H34.1677H34.1635H34.1592H34.1549H34.1507H34.1464H34.1421H34.1379H34.1336H34.1293H34.125C33.3801 66.2923 32.3723 66.2586 31.1052 66.192C24.9126 66.0256 19.9254 66.0009 16.1403 66.1171C12.4405 66.2307 9.93519 66.4783 8.57475 66.842C8.11779 67.2343 7.46449 67.4169 6.70754 67.4662C5.88052 67.5202 4.85002 67.4204 3.62957 67.1831L3.61657 67.1806L3.60373 67.1774C3.36308 67.1172 3.17211 67.0923 3.025 67.0923H2.94386L2.86689 67.0666C2.69184 67.0083 2.58271 66.9923 2.525 66.9923H2.29812L2.14871 66.8216C1.11593 65.6412 0.625002 64.0797 0.625002 62.1923C0.625002 61.7324 0.676278 61.32 0.815429 60.9953C0.954696 60.6704 1.20094 60.4005 1.57295 60.3131C1.69815 60.2632 1.83577 60.2371 1.96298 60.2212C2.12196 60.2013 2.308 60.1925 2.51621 60.1923C4.3745 60.1277 5.6722 59.5273 6.50591 58.4596C7.3548 57.3724 7.79026 55.7159 7.7252 53.4064L7.725 53.3923C7.725 37.3488 8.12352 25.7685 8.92449 18.6686C8.85052 14.8784 6.86198 11.4526 2.82295 8.39072L2.79566 8.37004L2.77144 8.34582C2.66672 8.24109 2.52732 8.12807 2.34765 8.0083C2.22094 7.92382 2.11363 7.85702 2.02451 7.80596C1.54208 7.84572 1.03633 7.77206 0.728691 7.37213C0.3962 6.93989 0.477355 6.35407 0.65066 5.83416L0.661897 5.80045L0.677788 5.76867L0.877788 5.36867L1.07779 4.96866C1.21989 4.68446 1.41768 4.41259 1.66197 4.15178C1.79605 3.58191 2.17734 3.16006 2.73263 2.89199C3.31176 2.61241 4.08601 2.49352 5.01033 2.49228C6.18118 2.42521 9.26725 2.45991 14.235 2.59236C19.2352 2.65903 26.1677 2.75902 35.0325 2.89233L35.0366 2.89241C40.7637 3.02559 45.6199 3.02546 49.6072 2.89258C53.1616 2.75864 55.6378 3.54498 56.5785 5.58178C57.0929 6.68464 57.325 8.34221 57.325 10.4923V10.4958V10.4993V10.5029V10.5064V10.5099V10.5134V10.517V10.5205V10.524V10.5276V10.5311V10.5347V10.5382V10.5417V10.5453V10.5488V10.5524V10.556V10.5595V10.5631V10.5666V10.5702V10.5738V10.5773V10.5809V10.5845V10.5881V10.5916V10.5952V10.5988V10.6024V10.606V10.6096V10.6132V10.6167V10.6203V10.6239V10.6275V10.6311V10.6348V10.6384V10.642V10.6456V10.6492V10.6528V10.6564V10.6601V10.6637V10.6673V10.6709V10.6746V10.6782V10.6818V10.6855V10.6891V10.6928V10.6964V10.7001V10.7037V10.7074V10.711V10.7147V10.7183V10.722V10.7256V10.7293V10.733V10.7367V10.7403V10.744V10.7477V10.7514V10.755V10.7587V10.7624V10.7661V10.7698V10.7735V10.7772V10.7809V10.7846V10.7883V10.792V10.7957V10.7994V10.8031V10.8068V10.8105V10.8143V10.818V10.8217V10.8254V10.8291V10.8329V10.8366V10.8403V10.8441V10.8478V10.8516V10.8553V10.8591V10.8628V10.8665V10.8703V10.8741V10.8778V10.8816V10.8853V10.8891V10.8929V10.8966V10.9004V10.9042V10.908V10.9117V10.9155V10.9193V10.9231V10.9269V10.9307V10.9344V10.9382V10.942V10.9458V10.9496V10.9534V10.9572V10.961V10.9649V10.9687V10.9725V10.9763V10.9801V10.9839V10.9878V10.9916V10.9954V10.9992V11.0031V11.0069V11.0108V11.0146V11.0184V11.0223V11.0261V11.03V11.0338V11.0377V11.0415V11.0454V11.0493V11.0531V11.057V11.0608V11.0647V11.0686V11.0725V11.0763V11.0802V11.0841V11.088V11.0919V11.0958V11.0996V11.1035V11.1074V11.1113V11.1152V11.1191V11.123V11.1269V11.1308V11.1348V11.1387V11.1426V11.1465V11.1504V11.1543V11.1583V11.1622V11.1661V11.17V11.174V11.1779V11.1819V11.1858V11.1897V11.1937V11.1976V11.2016V11.2055V11.2095V11.2134V11.2174V11.2214V11.2253V11.2293V11.2333V11.2372V11.2412V11.2452V11.2492V11.2531V11.2571V11.2611V11.2651V11.2691V11.2731V11.2771V11.281V11.285V11.289V11.293V11.2971V11.3011V11.3051V11.3091V11.3131V11.3171V11.3211V11.3251V11.3292V11.3332V11.3372V11.3413V11.3453V11.3493V11.3534V11.3574V11.3614V11.3655V11.3695V11.3736V11.3776V11.3817V11.3857V11.3898V11.3938V11.3979V11.402V11.406V11.4101V11.4142V11.4182V11.4223V11.4264V11.4305V11.4346V11.4386V11.4427V11.4468V11.4509V11.455V11.4591V11.4632V11.4673V11.4714V11.4755V11.4796V11.4837V11.4878V11.492V11.4961V11.5002V11.5043V11.5084V11.5126V11.5167V11.5208V11.5249V11.5291V11.5332V11.5374V11.5415V11.5456V11.5498V11.5539V11.5581V11.5622V11.5664V11.5706V11.5747V11.5789V11.583V11.5872V11.5914V11.5955V11.5997V11.6039V11.6081V11.6123V11.6164V11.6206V11.6248V11.629V11.6332V11.6374V11.6416V11.6458V11.65V11.6542V11.6584V11.6626V11.6668V11.671V11.6752V11.6795V11.6837V11.6879V11.6921V11.6963V11.7006V11.7048V11.709V11.7133V11.7175V11.7218V11.726V11.7302V11.7345V11.7387V11.743V11.7472V11.7515V11.7558V11.76V11.7643V11.7685V11.7728V11.7771V11.7814V11.7856V11.7899V11.7942V11.7985V11.8027V11.807V11.8113V11.8156V11.8199V11.8242V11.8285V11.8328V11.8371V11.8414V11.8457V11.85V11.8543V11.8586V11.863V11.8673V11.8716V11.8759V11.8802V11.8846V11.8889V11.8932V11.8976V11.9019V11.9062V11.9106V11.9149V11.9193V11.9236V11.928V11.9323V11.9367V11.941V11.9454V11.9498V11.9541V11.9585V11.9628V11.9672V11.9716V11.976V11.9803V11.9847V11.9891V11.9935V11.9979V12.0023V12.0067V12.011V12.0154V12.0198V12.0242V12.0286V12.0331V12.0375V12.0419V12.0463V12.0507V12.0551V12.0595V12.0639V12.0684V12.0728V12.0772V12.0817V12.0861V12.0905V12.095V12.0994V12.1038V12.1083V12.1127V12.1172V12.1216V12.1261V12.1305V12.135V12.1395V12.1439V12.1484V12.1528V12.1573V12.1618V12.1663V12.1707V12.1752V12.1797V12.1842V12.1887V12.1931V12.1976V12.2021V12.2066V12.2111V12.2156V12.2201V12.2246V12.2291V12.2336V12.2381V12.2427V12.2472V12.2517V12.2562V12.2607V12.2653V12.2698V12.2743V12.2788V12.2834V12.2879V12.2924V12.297V12.3015V12.3061V12.3106V12.3152V12.3197V12.3243V12.3288V12.3334V12.338V12.3425V12.3471V12.3516V12.3562V12.3608V12.3654V12.3699V12.3745V12.3791V12.3837V12.3883V12.3929V12.3974V12.402V12.4066V12.4112V12.4158V12.4204V12.425V12.4296V12.4342V12.4389V12.4435V12.4481V12.4527V12.4573V12.4619V12.4666V12.4712V12.4758V12.4805V12.4851V12.4897V12.4944V12.499V12.5037V12.5083V12.5129V12.5176V12.5222V12.5269V12.5316V12.5362V12.5409V12.5455V12.5502V12.5549V12.5595V12.5642V12.5689V12.5736V12.5782V12.5829V12.5876V12.5923C57.325 13.3791 57.3578 14.3016 57.424 15.3611L57.425 15.3767V15.3923V17.6923C57.425 19.6189 57.207 21.1628 56.7361 22.2857C56.2577 23.4264 55.4948 24.1765 54.4194 24.3833L54.3726 24.3923H54.325C53.6914 24.3923 53.0873 24.2599 52.5181 23.9957C51.7793 24.0056 51.137 23.7916 50.725 23.2423C50.3097 22.6886 50.223 21.9127 50.3286 21.0327L50.3302 21.019L50.3326 21.0054C50.4325 20.4392 50.5072 20.0077 50.5568 19.7101C50.5817 19.561 50.5999 19.4475 50.6118 19.3681C50.614 19.3533 50.6159 19.3405 50.6174 19.3296C49.4448 14.9842 47.055 12.124 43.4621 10.6658L42.0876 10.2731L42.043 10.2603L42.0014 10.2395C41.652 10.0648 41.2707 9.94672 40.8543 9.88725L40.8117 9.88116L40.7708 9.86788C38.3869 9.09475 34.1253 8.69227 27.925 8.69227H24.825H24.8097L24.7944 8.69133C21.5858 8.49489 19.3892 9.06128 18.0699 10.2545L17.3786 10.9459M39.725 65.9923C38.8583 65.9256 38.0917 65.8923 37.425 65.8923L57.125 53.8923C58.125 54.759 58.625 56.6256 58.625 59.4923C58.625 62.8923 57.1583 65.159 54.225 66.2923C53.2917 66.6256 52.3583 66.8256 51.425 66.8923C50.1583 66.8923 46.2583 66.5923 39.725 65.9923ZM17.3786 10.9459L17.025 10.5923" stroke="#7987F4" stroke-opacity="0.5"/>
<path d="M59.5283 33.8983L72.6263 11.0923L86.5932 33.8983L72.6263 57.5733L59.5283 33.8983Z" fill="url(#paint10_radial_4329_1115)"/>
<path d="M72.6404 56.5657L60.1025 33.903L72.6403 12.0723L86.01 33.9033L72.6404 56.5657Z" stroke="#7987F4" stroke-opacity="0.06"/>
<path d="M59.5283 33.8983L72.6263 11.0923L86.5932 33.8983L72.6263 57.5733L59.5283 33.8983Z" fill="url(#paint11_radial_4329_1115)"/>
<path d="M72.6404 56.5657L60.1025 33.903L72.6403 12.0723L86.01 33.9033L72.6404 56.5657Z" stroke="#7987F4" stroke-opacity="0.06"/>
</g>
<defs>
<linearGradient id="paint0_linear_4329_1115" x1="135.087" y1="71.2777" x2="145.32" y2="107.526" gradientUnits="userSpaceOnUse">
<stop stop-color="#DB84E9"/>
<stop offset="0.489583" stop-color="#84E9E3"/>
<stop offset="1" stop-color="#7987F4"/>
</linearGradient>
<linearGradient id="paint1_linear_4329_1115" x1="112.595" y1="75.8226" x2="119.95" y2="107.67" gradientUnits="userSpaceOnUse">
<stop stop-color="#DB84E9"/>
<stop offset="0.489583" stop-color="#84E9E3"/>
<stop offset="1" stop-color="#7987F4"/>
</linearGradient>
<linearGradient id="paint2_linear_4329_1115" x1="88.6104" y1="75.9589" x2="94.8754" y2="106.836" gradientUnits="userSpaceOnUse">
<stop stop-color="#DB84E9"/>
<stop offset="0.489583" stop-color="#84E9E3"/>
<stop offset="1" stop-color="#7987F4"/>
</linearGradient>
<linearGradient id="paint3_linear_4329_1115" x1="67.5483" y1="60.8258" x2="96.1049" y2="107.739" gradientUnits="userSpaceOnUse">
<stop stop-color="#DB84E9"/>
<stop offset="0.489583" stop-color="#84E9E3"/>
<stop offset="1" stop-color="#7987F4"/>
</linearGradient>
<linearGradient id="paint4_linear_4329_1115" x1="56.5946" y1="75.823" x2="63.9503" y2="107.67" gradientUnits="userSpaceOnUse">
<stop stop-color="#DB84E9"/>
<stop offset="0.489583" stop-color="#84E9E3"/>
<stop offset="1" stop-color="#7987F4"/>
</linearGradient>
<linearGradient id="paint5_linear_4329_1115" x1="33.6104" y1="75.9589" x2="39.8754" y2="106.836" gradientUnits="userSpaceOnUse">
<stop stop-color="#DB84E9"/>
<stop offset="0.489583" stop-color="#84E9E3"/>
<stop offset="1" stop-color="#7987F4"/>
</linearGradient>
<linearGradient id="paint6_linear_4329_1115" x1="13.6104" y1="74.3244" x2="27.4007" y2="118.987" gradientUnits="userSpaceOnUse">
<stop stop-color="#DB84E9"/>
<stop offset="0.489583" stop-color="#84E9E3"/>
<stop offset="1" stop-color="#7987F4"/>
</linearGradient>
<linearGradient id="paint7_linear_4329_1115" x1="135.874" y1="-8.19567" x2="162.7" y2="77.7777" gradientUnits="userSpaceOnUse">
<stop stop-color="#DB84E9"/>
<stop offset="0.489583" stop-color="#84E9E3"/>
<stop offset="1" stop-color="#7987F4"/>
</linearGradient>
<linearGradient id="paint8_linear_4329_1115" x1="98.3831" y1="-6.34793" x2="133.021" y2="67.082" gradientUnits="userSpaceOnUse">
<stop stop-color="#DB84E9"/>
<stop offset="0.489583" stop-color="#84E9E3"/>
<stop offset="1" stop-color="#7987F4"/>
</linearGradient>
<linearGradient id="paint9_linear_4329_1115" x1="30.2571" y1="-5.76319" x2="50.2028" y2="79.0309" gradientUnits="userSpaceOnUse">
<stop stop-color="#DB84E9"/>
<stop offset="0.489583" stop-color="#84E9E3"/>
<stop offset="1" stop-color="#7987F4"/>
</linearGradient>
<radialGradient id="paint10_radial_4329_1115" cx="0" cy="0" r="1" gradientUnits="userSpaceOnUse" gradientTransform="translate(72.9249 34.0923) rotate(90) scale(24 18.1696)">
<stop offset="0.19923" stop-color="#C73FDD" stop-opacity="0.75"/>
<stop offset="0.427083" stop-color="#84E9E3" stop-opacity="0.53"/>
<stop offset="0.953125" stop-color="#3349F4" stop-opacity="0.7"/>
</radialGradient>
<radialGradient id="paint11_radial_4329_1115" cx="0" cy="0" r="1" gradientUnits="userSpaceOnUse" gradientTransform="translate(72.9249 34.0923) rotate(90) scale(24 18.1696)">
<stop offset="0.19923" stop-color="#C73FDD" stop-opacity="0.75"/>
<stop offset="0.427083" stop-color="#84E9E3" stop-opacity="0.53"/>
<stop offset="0.953125" stop-color="#3349F4" stop-opacity="0.7"/>
</radialGradient>
<clipPath id="clip0_4329_1115">
<rect width="160" height="116" fill="white"/>
</clipPath>
</defs>
</svg>
