<svg width="40" height="40" viewBox="0 0 40 40" fill="none" xmlns="http://www.w3.org/2000/svg">
<path d="M20.044 40H19.956C8.95238 40 0 31.0476 0 20.044V19.956C0 8.95239 8.95238 0 19.956 0H20.044C31.0476 0 40 8.95239 40 19.956V20.044C40 31.0476 31.0476 40 20.044 40ZM19.956 1.35396C9.69841 1.35396 1.35396 9.69842 1.35396 19.956V20.044C1.35396 30.3016 9.69841 38.646 19.956 38.646H20.044C30.3016 38.646 38.646 30.3016 38.646 20.044V19.956C38.646 9.69842 30.3016 1.35396 20.044 1.35396H19.956Z" fill="#FFFDFD"/>
<path fill-rule="evenodd" clip-rule="evenodd" d="M25.0601 12.3356C23.0003 11.2214 21.4004 10.3559 20.101 9.79446C18.7968 9.2309 17.6646 8.91264 16.5638 9.02105C14.8166 9.1931 13.226 10.052 12.1895 11.3886C11.5348 12.233 11.2622 13.3166 11.1308 14.6582C11 15.9944 11 17.7263 11 19.9536V20.0464C11 22.2737 11 24.0056 11.1308 25.3418C11.2622 26.6834 11.5348 27.767 12.1895 28.6113C13.226 29.948 14.8166 30.8069 16.5638 30.979C17.6646 31.0874 18.7968 30.7691 20.101 30.2055C21.4004 29.6441 23.0003 28.7786 25.0601 27.6644L25.1437 27.6192C27.2033 26.5051 28.8033 25.6396 29.9721 24.8659C31.1442 24.09 32.0082 23.3285 32.4612 22.3752C33.1796 20.8635 33.1796 19.1365 32.4612 17.6248C32.0082 16.6715 31.1442 15.91 29.9721 15.1341C28.8033 14.3604 27.2033 13.4949 25.1437 12.3808L25.0601 12.3356ZM16.7479 10.7043C17.3662 10.6434 18.1411 10.8072 19.3617 11.3346C20.5783 11.8603 22.1081 12.6868 24.2183 13.8283C26.3285 14.9698 27.8573 15.7977 28.9514 16.522C30.05 17.2492 30.585 17.7942 30.8351 18.3204C31.3433 19.3898 31.3433 20.6102 30.8351 21.6796C30.585 22.2058 30.05 22.7508 28.9513 23.478C27.8573 24.2023 26.3285 25.0302 24.2183 26.1717C22.1081 27.3132 20.5783 28.1397 19.3617 28.6654C18.1411 29.1928 17.3662 29.3566 16.7479 29.2957C15.4961 29.1724 14.3623 28.5575 13.6264 27.6085C13.265 27.1425 13.0296 26.4378 12.907 25.1853C12.7847 23.9366 12.7838 22.2834 12.7838 20C12.7838 17.7166 12.7847 16.0634 12.907 14.8147C13.0296 13.5622 13.265 12.8575 13.6264 12.3915C14.3623 11.4424 15.4961 10.8276 16.7479 10.7043Z" fill="#FFFDFD"/>
</svg>
