<svg width="40" height="40" viewBox="0 0 40 40" fill="none" xmlns="http://www.w3.org/2000/svg">
<path d="M20.044 40H19.956C8.95236 40 0 31.0476 0 20.044V19.956C0 8.95236 8.95236 0 19.956 0H20.044C31.0476 0 40 8.95236 40 19.956V20.044C40 31.0476 31.0476 40 20.044 40ZM19.956 1.35396C9.69839 1.35396 1.35396 9.69839 1.35396 19.956V20.044C1.35396 30.3016 9.69839 38.646 19.956 38.646H20.044C30.3016 38.646 38.646 30.3016 38.646 20.044V19.956C38.646 9.69839 30.3016 1.35396 20.044 1.35396H19.956Z" fill="#FFFDFD"/>
<path d="M7.99654 19.3399C8.05069 19.3128 8.10488 19.2871 8.15768 19.2627C9.07567 18.8376 10.0058 18.4395 10.9347 18.0414C10.9847 18.0414 11.0687 17.9832 11.1161 17.9642C11.1878 17.9331 11.2596 17.9033 11.3314 17.8722C11.4695 17.8126 11.6076 17.7544 11.7443 17.6948C12.0205 17.577 12.2954 17.4592 12.5716 17.3414C13.1226 17.1058 13.6737 16.8703 14.2247 16.6333C15.3269 16.1621 16.4304 15.6896 17.5325 15.2184C18.6346 14.7472 19.7381 14.2747 20.8402 13.8035C21.9423 13.3323 23.0458 12.8598 24.1479 12.3886C25.25 11.9175 26.3535 11.4449 27.4557 10.9738C27.7007 10.8682 27.9661 10.7111 28.2288 10.6651C28.4495 10.6258 28.6647 10.55 28.8868 10.508C29.3079 10.4281 29.7723 10.3956 30.1757 10.5703C30.3152 10.6312 30.4438 10.7165 30.5508 10.8235C31.0626 11.3298 30.9908 12.1612 30.8825 12.8734C30.1284 17.837 29.3742 22.8019 28.6187 27.7656C28.5158 28.4466 28.375 29.194 27.8375 29.6245C27.3825 29.9888 26.7353 30.0294 26.1734 29.875C25.6115 29.7193 25.116 29.393 24.6299 29.0721C22.6139 27.7371 20.5965 26.4021 18.5805 25.0671C18.1012 24.7503 17.5677 24.336 17.5731 23.7605C17.5758 23.4139 17.783 23.1052 17.9942 22.8304C19.7462 20.5449 22.274 18.9743 24.1547 16.7944C24.4201 16.4871 24.6286 15.932 24.2644 15.7546C24.0477 15.649 23.7986 15.7925 23.6009 15.9292C21.115 17.6555 18.6306 19.3832 16.1447 21.1095C15.3337 21.6727 14.4834 22.2522 13.5058 22.3903C12.6312 22.5149 11.7511 22.2712 10.9049 22.022C10.1954 21.8135 9.48725 21.5996 8.78184 21.3789C8.40679 21.2625 8.01956 21.1366 7.72981 20.8725C7.44006 20.6085 7.27355 20.1644 7.44821 19.8124C7.55788 19.5917 7.77046 19.4523 7.99386 19.3385L7.99654 19.3399Z" fill="#FFFDFD"/>
</svg>
