<svg width="40" height="40" viewBox="0 0 40 40" fill="none" xmlns="http://www.w3.org/2000/svg">
<path d="M20.044 40H19.956C8.95238 40 0 31.0476 0 20.044V19.956C0 8.95239 8.95238 0 19.956 0H20.044C31.0476 0 40 8.95239 40 19.956V20.044C40 31.0476 31.0476 40 20.044 40ZM19.956 1.35396C9.69841 1.35396 1.35396 9.69842 1.35396 19.956V20.044C1.35396 30.3016 9.69841 38.646 19.956 38.646H20.044C30.3016 38.646 38.646 30.3016 38.646 20.044V19.956C38.646 9.69842 30.3016 1.35396 20.044 1.35396H19.956Z" fill="#FFFDFD"/>
<path d="M30.954 18.4749C30.4343 12.6122 25.4963 8 19.5014 8C13.16 8 8 13.1603 8 19.4993C8 21.8271 8.69693 23.9965 9.89185 25.8086L8.45876 28.9849C8.0812 29.8199 8.75376 30.7483 9.6645 30.6522L15.0004 30.0838C16.3834 30.6739 17.9045 31 19.5014 31C19.9073 31 20.3106 30.9784 20.7058 30.9377C21.0711 30.8985 21.4297 30.843 21.7843 30.7726C27.0147 29.7143 30.9689 25.094 31 19.5656V19.4993C31 19.1556 30.9851 18.8105 30.954 18.4749ZM25.8887 16.9104L23.4745 20.6348L22.1971 22.6053C21.925 23.0248 21.3526 23.1249 20.9548 22.8218L18.8369 21.2167L17.531 20.2274C17.4254 20.1476 17.2779 20.1503 17.1751 20.2342L13.9706 22.8488C13.455 23.2697 12.7499 22.6364 13.1113 22.0788L15.3726 18.5926L16.65 16.6208C16.922 16.2012 17.4931 16.1011 17.8923 16.4029L19.9479 17.9619L21.2538 18.9499C21.3594 19.0311 21.5069 19.0284 21.6097 18.9431L25.0281 16.1404C25.5437 15.7181 26.2514 16.3515 25.8887 16.9104Z" fill="#FFFDFD"/>
</svg>
